<svg id="Ebene_1" data-name="Ebene 1" xmlns="http://www.w3.org/2000/svg" viewBox="0 0 700 700"><defs><style>.cls-1{stroke:#000;stroke-miterlimit:10;stroke-width:2px;}.cls-2{fill:#fff;}</style></defs><title>Zeichenfläche 2</title><path d="M107.68,247.53l-12.3,3.6s2.34,6.11,1.43,7.6-1.81,3,.45,2.58,2.94-3.17,5.89-6.34S110.17,248.43,107.68,247.53Z"/><path d="M128.76,224.73s-14.69-10.88-17.62-14.36-1.8-3.68-4.06-3.28S103,217.1,99.82,219s-6.09,6.51-6.09,6.51Z"/><path d="M85.33,234.12s-4.3,4.07-8.14,2.08-7-6.76-9-5.08,4.5,12.52,7.66,17.29,3.15,11.42,5.41,11,5-4.85,7-6.54S93,246.76,93,246.76Z"/><path class="cls-1" d="M138.44,233.56s-11-16.7-32.52-13A30.5,30.5,0,0,0,83.3,237.8S87.56,255.68,109,252C124.85,249.21,139.78,241.3,138.44,233.56Z"/><ellipse class="cls-2" cx="122.85" cy="230.94" rx="1.72" ry="1.97" transform="translate(-37.66 24.39) rotate(-9.84)"/><path d="M216,248.36l-12.1-2.44s-.74,6.26-2.18,7.12-2.88,1.72-.77,2.4,3.93-1.39,7.86-2.77S217.74,250.23,216,248.36Z"/><path d="M244.19,238.34s-7.66-15.85-8.6-20.13.11-3.94-2-4.62-8,6.71-11.5,6.9-8.1,2.82-8.1,2.82Z"/><path d="M203,226.92s-5.49,1.55-7.87-1.87-2.94-8.9-5.43-8.37-1.76,12.69-1.21,18.17S186,246,188.13,246.67s6.42-1.91,8.91-2.43,6.8-3.11,6.8-3.11Z"/><path d="M248.5,250.2s-1.95-19.18-21.92-25.61a29.38,29.38,0,0,0-27,4.56s-4.36,17.15,15.62,23.58C229.91,257.47,246.18,257.4,248.5,250.2Z"/><ellipse class="cls-2" cx="236.38" cy="240.99" rx="1.89" ry="1.66" transform="translate(-65.46 392.14) rotate(-72.15)"/><path d="M363.67,193.47l-9.78.14s.48,5-.49,5.88-1.94,1.82-.2,2,2.81-1.73,5.62-3.46S365.31,194.64,363.67,193.47Z"/><path d="M383.82,181s-8.59-11-10-14.16-.58-3.07-2.32-3.24-5,6.53-7.76,7.27-5.81,3.55-5.81,3.55Z"/><path d="M350,179s-4,2.12-6.41-.13-3.77-6.4-5.61-5.58.76,10.12,2.11,14.28,0,9,1.73,9.21,4.65-2.55,6.49-3.38A24.92,24.92,0,0,0,353,189.9Z"/><path d="M389.14,189.46a25.2,25.2,0,0,0-21.28-16.17,23.29,23.29,0,0,0-20.15,8.05s-.51,14,16,15.66C376,198.2,388.55,195.43,389.14,189.46Z"/><ellipse class="cls-2" cx="378.21" cy="184.35" rx="1.5" ry="1.31" transform="translate(157.51 542.57) rotate(-84.35)"/><path d="M430.08,267.45l-12.73-.59s.23,6.5-1.1,7.61-2.67,2.21-.41,2.57,3.79-2,7.58-4.06S432.13,269.1,430.08,267.45Z"/><path d="M457.27,252.8s-10.31-15-11.95-19.2-.51-4-2.76-4.4-7.08,8.11-10.66,8.85-7.83,4.16-7.83,4.16Z"/><path d="M413.38,247.62s-5.36,2.44-8.33-.67-4.4-8.62-6.86-7.7.19,13.23,1.62,18.74-.73,11.76,1.53,12.12,6.25-3,8.71-3.88,6.46-4.25,6.46-4.25Z"/><path d="M463.53,264.23s-5-19.28-26.41-22.71a30.34,30.34,0,0,0-26.85,8.9s-1.76,18.2,19.65,21.62C445.7,274.57,462.29,271.95,463.53,264.23Z"/><ellipse class="cls-2" cx="449.71" cy="256.74" rx="1.95" ry="1.71" transform="translate(125.1 660.19) rotate(-80.9)"/><path d="M543.9,205.08l-9.63,3s1.91,4.78,1.22,6-1.39,2.36.38,2,2.28-2.53,4.55-5.05S545.87,205.76,543.9,205.08Z"/><path d="M560.2,186.9s-11.68-8.38-14-11.08-1.46-2.87-3.23-2.53-3.09,7.92-5.56,9.44-4.71,5.19-4.71,5.19Z"/><path d="M526.17,194.81s-3.33,3.25-6.37,1.73-5.58-5.24-7.16-3.89,3.69,9.79,6.22,13.5,2.61,8.94,4.38,8.61,3.86-3.87,5.44-5.22a25.67,25.67,0,0,0,3.67-4.89Z"/><path d="M567.92,193.73a26,26,0,0,0-25.72-9.82,24,24,0,0,0-17.59,13.81s3.57,14,20.41,10.82C557.43,206.2,569.07,199.8,567.92,193.73Z"/><ellipse class="cls-2" cx="555.63" cy="191.86" rx="1.35" ry="1.55" transform="translate(-25.97 106.55) rotate(-10.71)"/><path d="M582.92,288.36l-8.62,1s.85,4.35.08,5.23-1.55,1.77,0,1.77,2.33-1.77,4.66-3.55S584.47,289.24,582.92,288.36Z"/><path d="M599.62,275.58s-8.54-9-10.1-11.62-.78-2.66-2.33-2.66-3.88,6.21-6.21,7.1a16,16,0,0,0-4.82,3.64Z"/><path d="M569.56,276.82s-3.34,2.22-5.67.44-3.88-5.32-5.44-4.44,1.55,8.87,3.11,12.42.78,8,2.33,8,3.88-2.66,5.44-3.55a22.1,22.1,0,0,0,3.88-3.55Z"/><path d="M605.06,282.59a22.35,22.35,0,0,0-20.19-12.42A20.66,20.66,0,0,0,567.78,279s.78,12.42,15.53,12.42C594.18,291.46,605.06,287.91,605.06,282.59Z"/><ellipse class="cls-2" cx="594.96" cy="279.04" rx="1.16" ry="1.33"/><path d="M634.33,369.67l-7.94.9s.79,4,.07,4.82-1.43,1.63,0,1.63,2.14-1.63,4.29-3.27S635.76,370.49,634.33,369.67Z"/><path d="M649.7,357.91s-7.86-8.25-9.29-10.7-.71-2.45-2.14-2.45-3.57,5.72-5.72,6.53a14.77,14.77,0,0,0-4.43,3.35Z"/><path d="M622,359.06s-3.07,2-5.22.41-3.57-4.9-5-4.08,1.43,8.17,2.86,11.43.71,7.35,2.14,7.35,3.57-2.45,5-3.27a20.35,20.35,0,0,0,3.57-3.27Z"/><path d="M654.7,364.37a20.58,20.58,0,0,0-18.59-11.43,19,19,0,0,0-15.73,8.17s.71,11.43,14.3,11.43C644.69,372.53,654.7,369.26,654.7,364.37Z"/><ellipse class="cls-2" cx="645.41" cy="361.1" rx="1.07" ry="1.22"/><path d="M593.55,472.39l-11.23,1.27s1.11,5.66.1,6.82-2,2.31,0,2.31,3-2.31,6.07-4.62S595.58,473.55,593.55,472.39Z"/><path d="M615.31,455.75s-11.13-11.68-13.16-15.14-1-3.47-3-3.47-5.06,8.09-8.1,9.25-6.28,4.74-6.28,4.74Z"/><path d="M576.14,457.37s-4.35,2.89-7.39.58-5.06-6.94-7.09-5.78,2,11.56,4,16.18,1,10.4,3,10.4,5.06-3.47,7.09-4.62,5.06-4.62,5.06-4.62Z"/><path d="M622.4,464.88s-7.09-16.18-26.32-16.18a26.92,26.92,0,0,0-22.27,11.56s1,16.18,20.24,16.18C608.23,476.44,622.4,471.82,622.4,464.88Z"/><ellipse class="cls-2" cx="609.24" cy="460.26" rx="1.52" ry="1.73"/><path d="M438.49,465.81l-9.78,0s.42,5-.56,5.87-2,1.8-.22,2,2.83-1.7,5.66-3.4S440.12,467,438.49,465.81Z"/><path d="M458.77,453.56s-8.47-11.09-9.88-14.27-.54-3.08-2.28-3.27-5.12,6.48-7.84,7.19-5.84,3.48-5.84,3.48Z"/><path d="M424.94,451.24s-4,2.07-6.41-.2-3.69-6.44-5.54-5.64.65,10.13,1.95,14.3-.11,9,1.63,9.23,4.68-2.5,6.53-3.31a24.92,24.92,0,0,0,4.79-3.5Z"/><path d="M464,462.08a25.2,25.2,0,0,0-21.1-16.41,23.29,23.29,0,0,0-20.24,7.83s-.66,14,15.87,15.83C450.72,470.68,463.34,468,464,462.08Z"/><ellipse class="cls-2" cx="453.12" cy="456.86" rx="1.5" ry="1.31" transform="translate(-50.58 857.26) rotate(-83.72)"/><path d="M534.76,557.59l-10.53,3.23s2.08,5.22,1.32,6.51-1.52,2.58.41,2.21,2.49-2.76,5-5.52S536.91,558.33,534.76,557.59Z"/><path d="M552.61,537.75s-12.75-9.19-15.31-12.14-1.59-3.14-3.53-2.78-3.4,8.66-6.1,10.31-5.16,5.66-5.16,5.66Z"/><path d="M515.4,546.32s-3.65,3.55-7,1.88-6.09-5.73-7.82-4.27,4,10.71,6.78,14.77,2.83,9.78,4.77,9.42,4.22-4.23,6-5.7a28.06,28.06,0,0,0,4-5.33Z"/><path d="M561,545.22a28.38,28.38,0,0,0-28.1-10.78,26.22,26.22,0,0,0-19.25,15.06s3.87,15.32,22.28,11.87C549.54,558.83,562.28,551.87,561,545.22Z"/><path d="M538.33,547.18a38.73,38.73,0,0,0-5.26-1.31c-3.11-.56-6.23-1.13-4.85.91s1.45,7.75,3.18,6.28S540.48,547.93,538.33,547.18Z"/><ellipse cx="547.61" cy="543.15" rx="1.48" ry="1.69" transform="translate(-90.55 109.97) rotate(-10.6)"/><path d="M318.67,483.65l-11.8,4s2.5,5.84,1.68,7.32-1.65,3,.53,2.49,2.74-3.19,5.47-6.38S321.12,484.43,318.67,483.65Z"/><path d="M338.26,460.72s-14.67-10-17.65-13.27-1.89-3.5-4.07-3S313,454.29,310,456.24s-5.66,6.55-5.66,6.55Z"/><path d="M296.47,471.49s-4,4.11-7.82,2.32-7-6.3-9-4.59,4.84,12,8.09,16.49,3.49,11,5.67,10.5,4.65-4.9,6.56-6.61,4.38-6.14,4.38-6.14Z"/><path d="M348,468.91s-11.36-15.79-32.05-11.35a29.63,29.63,0,0,0-21.3,17.57s4.82,17.19,25.52,12.75C335.4,484.62,349.59,476.38,348,468.91Z"/><ellipse class="cls-2" cx="332.76" cy="466.97" rx="1.67" ry="1.91" transform="translate(-90.4 80.02) rotate(-12.09)"/><path d="M185.56,464.36l-8-.62s0,4.08-.84,4.74-1.71,1.33-.31,1.6,2.41-1.2,4.83-2.39S186.8,465.43,185.56,464.36Z"/><path d="M202.87,455.73s-6.16-9.58-7.1-12.26-.24-2.54-1.64-2.81-4.59,4.93-6.85,5.33a14.76,14.76,0,0,0-5,2.45Z"/><path d="M175.5,451.62s-3.4,1.42-5.2-.59-2.58-5.48-4.14-5-.14,8.28.64,11.76-.69,7.35.71,7.62,4-1.73,5.53-2.26a20.34,20.34,0,0,0,4.13-2.53Z"/><path d="M206.56,463a20.56,20.56,0,0,0-16.08-14.74,19,19,0,0,0-17,5s-1.46,11.35,11.87,13.93C195.19,469.13,205.63,467.82,206.56,463Z"/><ellipse class="cls-2" cx="198.05" cy="458.05" rx="1.22" ry="1.07" transform="translate(-289.22 565.73) rotate(-79.08)"/><path d="M233.29,549.64l-9.71-1.19s-.21,5-1.29,5.76-2.17,1.54-.47,1.94,3-1.33,6-2.67S234.76,551,233.29,549.64Z"/><path d="M255,540s-7-12.07-8-15.39-.15-3.12-1.86-3.53-5.89,5.79-8.68,6.15-6.23,2.72-6.23,2.72Z"/><path d="M221.68,533.49s-4.24,1.55-6.33-1-2.86-6.85-4.8-6.29-.63,10.13.14,14.43-1.25,9,.46,9.36,5-1.9,6.89-2.46a24.92,24.92,0,0,0,5.19-2.87Z"/><path d="M259.07,549.13a25.2,25.2,0,0,0-18.88-18.92,23.29,23.29,0,0,0-21.06,5.24s-2.41,13.82,13.77,17.69C244.82,556,257.67,555,259.07,549.13Z"/><ellipse class="cls-2" cx="248.94" cy="542.59" rx="1.5" ry="1.31" transform="translate(-336.72 658.25) rotate(-76.53)"/><path d="M82.6,376.13l-10.9,3s2,5.42,1.18,6.72-1.63,2.6.37,2.28,2.63-2.76,5.27-5.53S84.78,377,82.6,376.13Z"/><path d="M101.46,356.25s-12.84-9.77-15.39-12.88-1.55-3.27-3.55-2.95-3.72,8.79-6.54,10.41-5.45,5.67-5.45,5.67Z"/><path d="M63,364s-3.84,3.54-7.21,1.74-6.09-6.05-7.91-4.59,3.83,11.1,6.56,15.34,2.64,10.12,4.64,9.8,4.45-4.22,6.27-5.69,4.27-5.37,4.27-5.37Z"/><path d="M109.9,364.15s-9.55-14.87-28.55-11.83a26.92,26.92,0,0,0-20.17,14.93S64.74,383.09,83.74,380C97.73,377.81,111,371,109.9,364.15Z"/><ellipse class="cls-2" cx="96.18" cy="361.67" rx="1.52" ry="1.73" transform="translate(-55.91 19.73) rotate(-9.09)"/><path d="M497,407.23c-4.73,0-10.09-2.84-14.35-7.59a30,30,0,0,1-7.46-23.26v-.06c-4.87,5.6-9.52,8-13.87,7.14a107.53,107.53,0,0,0-20.87-2.31,233.2,233.2,0,0,1-24.11-1.88c-19.84-2.45-35.94,1-54.6,5-5.69,1.22-11.56,2.49-17.95,3.68-34.79,6.52-100.06,7-119.23,7-40.24,0-62.38-22.57-72-36-3.5-4.9-4.75-9-3.92-12.84,1.52-7.11,10.06-12.54,23.94-20.64,18.61-10.86,52-15,68-17,2.51-.31,4.63-.57,6.26-.81,11.77-1.68,34.95-16.1,40.7-20.45l1-.73c25.62-19.38,44.56-33,55.18-31.2,4.51.75,7.49,2.72,8.84,5.85,2,4.53.21,10.79-5.35,19.14-5.18,7.78-1.39,18.19-.18,21.07,17.09,8.46,29.28,11.85,42.29,15.1,15.17,3.79,29,4.68,32.84,2.11,5-3.34,21.72-9.55,28.48-7.29.84.28,3.38,1.13,3.65,3.48s-1.88,3.76-4.18,5.19a21.15,21.15,0,0,0-3.69,2.65c-1.68,1.68-2.47,5.85-2.67,8.88a108,108,0,0,0,17.36,7.73c10.07,3.36,13.29,3.36,21.87,3.36,5.61,0,14.67-5.5,21.29-9.52,2.8-1.7,5.22-3.17,7.23-4.18,1.78-.89,3.45-1.78,5.06-2.64,4.73-2.53,9.19-4.91,14.68-6.29,5.76-1.45,13.19,1.68,14.47,6.06.46,1.56.78,5.43-6,7.69s-12.53,9.29-19.61,18.12c-2.64,3.29-5.63,7-8.94,10.81-5.94,6.79-6.45,18.21-6.86,27.38C504,398.89,503.59,407.23,497,407.23Zm-14.19-42A57.89,57.89,0,0,0,480.42,377a24.71,24.71,0,0,0,6.16,19.19c3.23,3.61,7.23,5.85,10.45,5.85,1.55,0,1.89-7.62,2.1-12.17.45-10,1-22.43,8.16-30.6,3.24-3.7,6.06-7.23,8.79-10.63,7.62-9.51,13.63-17,22-19.81a6,6,0,0,0,2.6-1.38c-.55-1.14-4.73-3.18-8.12-2.33-4.87,1.22-8.86,3.35-13.49,5.82-1.65.88-3.36,1.8-5.19,2.71s-4.26,2.39-6.85,4c-7.54,4.58-16.93,10.28-24,10.28-8.95,0-12.65,0-23.53-3.63a110.75,110.75,0,0,1-19.73-9,2.62,2.62,0,0,1-1.27-2.25c0-1,.12-9.94,4.26-14.08a21.81,21.81,0,0,1,3.77-2.87c-5.71.26-16.93,3.9-21.42,6.9-8.17,5.45-32.27-.2-37-1.38-13.53-3.38-26.19-6.91-44.19-15.91a2.63,2.63,0,0,1-1.17-1.17c-.31-.63-7.58-15.46.16-27.07,5.82-8.72,5.57-12.61,4.9-14.15s-2.25-2.33-4.9-2.77c-9.14-1.53-33.45,16.81-51.16,30.21l-1,.73c-6.87,5.2-30.53,19.66-43.12,21.46-1.65.24-3.8.5-6.35.82-15.7,1.95-48.36,6-66,16.31-12.27,7.16-20.39,12.22-21.46,17.21-.5,2.31.48,5.08,3.06,8.69,11,15.43,31.72,33.83,67.72,33.83,19.06,0,83.92-.5,118.27-6.94,6.32-1.18,12.16-2.44,17.81-3.66,19.12-4.11,35.63-7.66,56.34-5.1a225.76,225.76,0,0,0,23.63,1.84,113.14,113.14,0,0,1,21.71,2.41c4.45.89,10.73-6.71,15.58-15,2.15-6.42,4.61-9.07,5-9.47a2.62,2.62,0,0,1,4.25,2.91C487.1,357,485.46,360.68,482.84,365.25Z"/><path d="M347.22,314a53.49,53.49,0,0,1,8.44,1.52c2.74.69,5.45,1.49,8.11,2.43s5.29,2,7.87,3.25a52.74,52.74,0,0,1,7.52,4.16,53,53,0,0,1-8.42-1.59c-2.73-.72-5.42-1.54-8.07-2.51s-5.3-2-7.89-3.17A53.37,53.37,0,0,1,347.22,314Z"/><path d="M416.91,335.2a37.22,37.22,0,0,1-6.38-.29c-2.07-.25-4.11-.61-6.09-1a26.77,26.77,0,0,1-6.17-1.83,23,23,0,0,1-5.56-3.3,47.83,47.83,0,0,1,6.33.66l6,1a34.56,34.56,0,0,1,6.14,1.74A27.1,27.1,0,0,1,416.91,335.2Z"/><path d="M438.12,341.24a14.45,14.45,0,0,1,4.46,0,20,20,0,0,1,4.17,1.1,17.39,17.39,0,0,1,2,.92c.59.33,1.19.66,1.78,1a22.37,22.37,0,0,1,3.54,2.6,11.75,11.75,0,0,1-4.51,0,14.78,14.78,0,0,1-2.14-.57c-.66-.22-1.26-.45-1.92-.69a29.58,29.58,0,0,1-3.8-1.76A16.76,16.76,0,0,1,438.12,341.24Z"/><circle cx="210.62" cy="333.01" r="5.24"/><path d="M189.09,384a57.5,57.5,0,0,1,8.67-4.13,26,26,0,0,1,4.76-1.37c1.63-.29,3.18-.46,4.74-.65,3.16-.29,6.34-.4,9.52-.42a65.11,65.11,0,0,1,9.56.57,66.09,66.09,0,0,1-9.32,2.14c-3.11.52-6.22.9-9.36,1.17-1.58.18-3.17.31-4.68.45a41.79,41.79,0,0,0-4.47.71A78.37,78.37,0,0,1,189.09,384Z"/><path d="M235.86,314.6l-.54-5.21L268.37,306a134.18,134.18,0,0,1,22.83,0,2.62,2.62,0,0,1-.48,5.22,131.55,131.55,0,0,0-21.8,0Z"/><path d="M332.72,271.89a43,43,0,0,1,.2,7.37c-.11,2.42-.32,4.83-.62,7.2a49.64,49.64,0,0,0-.57,6.91,68.3,68.3,0,0,1-.42,7.31,27.8,27.8,0,0,1-2.3-7.08,22.47,22.47,0,0,1-.43-3.79,30.43,30.43,0,0,1,.26-3.77,53.91,53.91,0,0,1,1.4-7.19A37,37,0,0,1,332.72,271.89Z"/><path d="M329.63,412.58c-11.93,0-30.41-14.92-47.25-29.39-2.17-1.86-4-3.47-5.29-4.47a43.89,43.89,0,0,1-6.42-6.77c-5-6.1-9.72-11.87-25.12-11.87-22,0-72.28,17.53-72.79,17.71a2.62,2.62,0,1,1-1.73-4.94c2.1-.74,51.64-18,74.52-18,17.88,0,23.88,7.32,29.18,13.79a39.18,39.18,0,0,0,5.64,6c1.32,1.06,3.14,2.62,5.43,4.59,10.34,8.9,37.84,32.53,46.64,27.49a1.29,1.29,0,0,0,.76-1.16c.64-7-19.69-27.58-34.33-40l-2.62-2.22,2.84-1.94c.71-.49,17.93-11.84,63.77-6.55C408,360.07,464.55,379,465.12,379.21a2.62,2.62,0,0,1-1.67,5c-.56-.19-56.59-19-101.19-24.11-32.88-3.8-50.34,1.31-57,4.09,9.87,8.62,34.16,31,33.16,41.87a6.49,6.49,0,0,1-3.38,5.23A10.73,10.73,0,0,1,329.63,412.58Z"/><path class="cls-2" d="M306,372.31s18.12,15.94,21.83,23.58S308,397.63,308,397.63L289.86,383Z"/><path d="M72.8,499.87c8.12-.48,16.22-.57,24.31-.52,4,0,8.09.12,12.14.18l12.11.36q6,.23,12.06.3c4,.09,8,0,12,0a154.48,154.48,0,0,0,24-2.37,84.93,84.93,0,0,1-23.79,5.49c-4.06.44-8.15.59-12.22.72s-8.14,0-12.2-.09c-8.12-.31-16.18-.78-24.25-1.43S80.85,501,72.8,499.87Z"/><path d="M406,418A45.33,45.33,0,0,1,419,415.75a70.26,70.26,0,0,1,13.3,1,127,127,0,0,1,13,2.86c4.25,1.16,8.44,2.47,12.62,3.71s8.32,2.58,12.49,3.71A118.7,118.7,0,0,0,483,429.82c8.44,1.37,17.17,1.31,25.56-1.45A38.3,38.3,0,0,1,496,432.6a54.22,54.22,0,0,1-13.39.31,93.42,93.42,0,0,1-13.14-2.25c-4.3-1-8.53-2.3-12.73-3.55s-8.34-2.64-12.49-3.91-8.32-2.43-12.51-3.44C423.35,417.82,414.72,416.79,406,418Z"/><path d="M461.48,191.44A152.09,152.09,0,0,0,437.34,198c-2,.73-3.9,1.45-5.86,2.14l-5.83,2.25L414,207c-3.93,1.49-7.87,3-11.85,4.36l-6,1.94c-2,.6-4.08,1.15-6.12,1.7a80.53,80.53,0,0,1-25.17,2.74A132.79,132.79,0,0,0,389.08,212c2-.7,3.92-1.37,5.89-2l5.85-2.17,5.85-2.23,5.84-2.29c3.92-1.49,7.85-3,11.81-4.41l6-2c2-.63,4.05-1.22,6.08-1.81A87.4,87.4,0,0,1,461.48,191.44Z"/><path d="M34.06,318.54c14.56-2.58,29.17-4.76,43.8-6.81,7.31-1.06,14.63-2,22-3,3.66-.49,7.31-.89,10.87-1.52a47.92,47.92,0,0,0,10.23-2.76,23.94,23.94,0,0,0,4.5-2.46c1.47-1,3-2.14,4.77-3.12a21.32,21.32,0,0,1,5.64-2.19,36.07,36.07,0,0,1,5.76-.85c3.82-.26,7.5-.2,11.19-.24s7.38,0,11.08,0c14.77,0,29.54.13,44.32.67-14.75,1.13-29.5,1.86-44.26,2.45-3.69.16-7.38.3-11.07.41s-7.4.18-10.94.51-7,1-9.81,2.67c-1.47.83-2.89,1.9-4.47,3a27.55,27.55,0,0,1-5.18,2.87,51.67,51.67,0,0,1-11.12,2.92c-3.72.6-7.41,1-11.08,1.42-7.34.77-14.68,1.61-22,2.3C63.54,316.28,48.82,317.6,34.06,318.54Z"/><path d="M350.86,516.66a52,52,0,0,1,23.09-5.89,85.79,85.79,0,0,1,12,.36c4,.39,7.93,1,11.85,1.68s7.78,1.57,11.63,2.45S417.13,517,421,518c7.66,1.92,15.28,4,22.82,6.43-7.89-.82-15.69-2-23.47-3.38-3.9-.64-7.76-1.42-11.64-2.13s-7.71-1.54-11.57-2.22-7.69-1.35-11.55-1.86a114,114,0,0,0-11.58-1A70.9,70.9,0,0,0,350.86,516.66Z"/><path d="M597,403.19a63.77,63.77,0,0,1,17.68-2.94,77.39,77.39,0,0,1,35.12,7.2,63.54,63.54,0,0,1,15.09,9.67,172.48,172.48,0,0,0-16.27-6.78,129.51,129.51,0,0,0-34-7A170.77,170.77,0,0,0,597,403.19Z"/><path d="M563.68,347.73a26.32,26.32,0,0,0,14,1.25,34.49,34.49,0,0,0,6.76-1.82,48.23,48.23,0,0,0,6.37-2.91,81,81,0,0,0,11.56-8.11c3.71-3,7.37-6.14,11.22-9.16A76.19,76.19,0,0,1,626,319a69.33,69.33,0,0,1,13.88-5.12,64.09,64.09,0,0,1,29.08-.65,82.45,82.45,0,0,0-28.23,3.65,77.25,77.25,0,0,0-13,5.48A76.38,76.38,0,0,0,616,330.15c-3.79,2.87-7.45,6-11.33,9-1.95,1.47-3.94,2.9-6,4.25a49.51,49.51,0,0,1-6.48,3.66,39.79,39.79,0,0,1-14.33,3.89A24.36,24.36,0,0,1,563.68,347.73Z"/></svg>