<svg id="Ebene_1" data-name="Ebene 1" xmlns="http://www.w3.org/2000/svg" viewBox="0 0 700 700"><defs><style>.cls-1,.cls-2,.cls-3,.cls-5,.cls-7,.cls-8{fill:none;}.cls-1,.cls-2,.cls-3,.cls-5,.cls-6,.cls-7,.cls-8{stroke:#000;stroke-miterlimit:10;}.cls-1,.cls-2,.cls-3,.cls-5,.cls-7{stroke-linecap:round;}.cls-1{stroke-width:16px;}.cls-2,.cls-6{stroke-width:5px;}.cls-3{stroke-width:7px;}.cls-4{fill:#fff;}.cls-5{stroke-width:9px;}.cls-7{stroke-width:6px;}.cls-8{stroke-width:4px;}</style></defs><title>Zeichenfläche 3</title><path d="M296,286.78c2.19-.69,4.41-1.23,6.65-1.73q1.68-.34,3.38-.66t3.41-.5c1.14-.14,2.28-.37,3.42-.55a11.89,11.89,0,0,1,3.44,0,15.43,15.43,0,0,1,6.74,2.5l0,.5a19.13,19.13,0,0,1-6.78,2,12.82,12.82,0,0,1-3.32,0c-1.11-.15-2.22-.33-3.34-.4s-2.23-.13-3.35-.18-2.24-.13-3.37-.17c-2.25-.12-4.51-.17-6.79-.27Z"/><path d="M362,287.25c-.92.14-1.83.27-2.75.39l.13-1.49,5.2-.17c1.73-.09,3.43-.08,5.15-.27.86-.1,1.71-.25,2.56-.28a10.47,10.47,0,0,1,2.54.26,14.66,14.66,0,0,1,5.16,2.07l0,.5a12.08,12.08,0,0,1-5.23,2.2,9.87,9.87,0,0,1-2.66.15,23.78,23.78,0,0,1-2.63-.51c-1.74-.38-3.49-.62-5.21-1.05s-3.43-.87-5.11-1.41l.13-1.49c.9.19,1.8.39,2.71.6Z"/><path d="M352,316.92c4.33-.45,8.66-.76,13-1.15l6.49-.49,6.5-.41c2.17-.13,4.33-.35,6.49-.55a46.36,46.36,0,0,1,6.5-.1c2.17.13,4.34.33,6.51.67a41.36,41.36,0,0,1,6.52,1.43v.5a41.37,41.37,0,0,1-6.48,1.58c-2.16.39-4.33.64-6.49.81a46.36,46.36,0,0,1-6.5,0c-2.17-.14-4.34-.32-6.5-.4l-6.5-.26-6.5-.34c-4.34-.29-8.67-.5-13-.85Z"/><path d="M416,330.75c4.25-.4,8.5-.66,12.75-1l6.38-.41,6.38-.34c2.13-.11,4.25-.31,6.38-.48a44.6,44.6,0,0,1,6.38,0c2.13.15,4.25.38,6.38.74a39.92,39.92,0,0,1,6.38,1.51v.5a39.92,39.92,0,0,1-6.37,1.51c-2.12.36-4.25.59-6.37.74a44.6,44.6,0,0,1-6.37,0c-2.12-.17-4.25-.37-6.37-.48l-6.37-.34-6.37-.41c-4.25-.34-8.5-.6-12.75-1Z"/><path d="M487,330c3.59-.32,7.18-.5,10.77-.76l5.38-.29,5.38-.22c1.79-.07,3.59-.23,5.39-.35a31.22,31.22,0,0,1,5.38.1A39.09,39.09,0,0,1,530,331v.5a39.09,39.09,0,0,1-10.8,2,31.21,31.21,0,0,1-5.37-.15c-1.79-.21-3.58-.45-5.36-.6l-5.37-.46-5.37-.53c-3.58-.42-7.15-.76-10.73-1.24Z"/><path d="M392,349c6.51-.2,13-.35,19.5-.65q4.87-.19,9.73-.43t9.72-.48l4.86-.34,4.85-.41q4.85-.41,9.71-.42c3.24,0,6.49.06,9.75.22s6.53.38,9.82.86l0,.5a81.15,81.15,0,0,1-9.64,2.16c-3.23.54-6.48,1-9.73,1.27a94.09,94.09,0,0,1-9.78.37l-9.79-.2q-4.89-.07-9.78-.19t-9.77-.4c-6.51-.37-13-.75-19.51-1.35Z"/><path d="M486,361.75c2.25-.4,4.5-.69,6.75-1l3.38-.41,3.38-.34c1.13-.11,2.25-.31,3.38-.48a12.29,12.29,0,0,1,3.38,0,17,17,0,0,1,6.75,2.25v.5a17,17,0,0,1-6.75,2.25,12.29,12.29,0,0,1-3.37,0c-1.12-.17-2.25-.37-3.37-.48l-3.37-.34-3.37-.41c-2.25-.31-4.5-.6-6.75-1Z"/><path d="M540,371.75c.92-.4,1.83-.69,2.75-1l1.38-.41,1.38-.34a11.93,11.93,0,0,0,1.38-.48,2.09,2.09,0,0,1,1.38,0,4.34,4.34,0,0,1,1.38.74,5.58,5.58,0,0,1,1.38,1.51v.5a5.58,5.58,0,0,1-1.37,1.51,4.34,4.34,0,0,1-1.37.74,2.09,2.09,0,0,1-1.37,0,11.93,11.93,0,0,0-1.37-.48l-1.37-.34-1.37-.41c-.92-.31-1.83-.6-2.75-1Z"/><path d="M507,394.46c4.51-.33,9-.53,13.52-.79l6.76-.31,6.76-.23c2.25-.07,4.5-.24,6.76-.37a50,50,0,0,1,6.75.08c2.25.18,4.49.45,6.74.84a44.38,44.38,0,0,1,6.73,1.61v.5a44.37,44.37,0,0,1-6.77,1.41c-2.26.33-4.51.52-6.76.64a50,50,0,0,1-6.75-.13c-2.25-.2-4.49-.44-6.74-.58l-6.75-.44-6.74-.52c-4.5-.41-9-.74-13.49-1.21Z"/><path d="M505,408.52c-2.76.29-5.52.49-8.29.69l-4.14.26-4.14.18c-1.38.05-2.76.2-4.14.32a18.34,18.34,0,0,1-4.12-.13,24.11,24.11,0,0,1-8.16-2.56l0-.5a24.11,24.11,0,0,1,8.33-1.94,18.35,18.35,0,0,1,4.12.18c1.37.22,2.74.47,4.11.63l4.11.49,4.11.57c2.74.41,5.48.81,8.21,1.31Z"/><path d="M192,422.18c-4.91.47-9.83.79-14.75,1.16l-7.38.44-7.39.33c-2.46.1-4.93.28-7.39.43a58.06,58.06,0,0,1-7.39-.05c-2.46-.18-4.92-.45-7.38-.85A51,51,0,0,1,133,422v-.5a53.84,53.84,0,0,1,7.4-1.36c2.46-.32,4.92-.51,7.38-.63a61.47,61.47,0,0,1,7.36.1c2.45.19,4.91.4,7.36.52l7.37.35,7.37.39,14.76.84Z"/><path d="M151,411.33c-2.28.09-4.54.14-6.79.25q-1.69.06-3.37.16t-3.35.17c-1.11.07-2.23.24-3.34.39a12.81,12.81,0,0,1-3.32,0,19.15,19.15,0,0,1-6.77-2l0-.5a15.41,15.41,0,0,1,6.74-2.49,11.88,11.88,0,0,1,3.44,0c1.15.19,2.28.41,3.42.56s2.27.33,3.4.51,2.26.43,3.38.66c2.24.5,4.46,1,6.65,1.74Z"/><path d="M151,389.81c4.41-.46,8.83-.77,13.25-1.13l6.63-.43,6.64-.33c2.21-.1,4.43-.29,6.64-.44a47.13,47.13,0,0,1,6.64,0c2.21.18,4.42.44,6.63.83A41.92,41.92,0,0,1,204,390v.5a43.89,43.89,0,0,1-6.65,1.39c-2.21.33-4.42.53-6.63.65a49.32,49.32,0,0,1-6.62-.09c-2.2-.19-4.41-.4-6.61-.51l-6.62-.34-6.62-.39c-4.42-.31-8.83-.53-13.26-.87Z"/><path d="M173,401.67c1.84-.37,3.67-.65,5.51-.93l2.75-.38,2.75-.3c.92-.1,1.84-.28,2.76-.44a8.18,8.18,0,0,1,2.75,0,12.19,12.19,0,0,1,5.47,2.32v.5a12.19,12.19,0,0,1-5.53,2.18,8.18,8.18,0,0,1-2.75-.06c-.91-.18-1.83-.39-2.74-.51l-2.75-.37-2.74-.45c-1.83-.33-3.66-.65-5.49-1.07Z"/><path d="M199,361.17c-4.24.49-8.49.84-12.73,1.27l-6.37.55-6.37.47c-2.12.15-4.24.4-6.36.61a44.62,44.62,0,0,1-6.37.16c-2.13-.11-4.26-.29-6.39-.61a39.93,39.93,0,0,1-6.41-1.37v-.5a39.93,39.93,0,0,1,6.34-1.64c2.12-.41,4.24-.68,6.36-.88a44.62,44.62,0,0,1,6.38-.11c2.13.12,4.26.28,6.38.34l6.38.2,6.38.28c4.26.25,8.51.42,12.77.73Z"/><path d="M170,330.87c4.4-.56,8.82-.92,13.25-1.31l6.65-.44,6.65-.28c2.22-.07,4.44-.22,6.67-.33a45.16,45.16,0,0,1,6.66.2,63.05,63.05,0,0,1,6.61,1.06,40.16,40.16,0,0,1,6.54,1.9l0,.5a46,46,0,0,1-6.69,1.11c-2.22.25-4.43.37-6.63.43a51.75,51.75,0,0,1-6.59-.25c-2.19-.23-4.39-.48-6.59-.62l-13.21-.78c-4.41-.29-8.83-.45-13.26-.69Z"/><path d="M201,323.2c-2.15.5-4.3.91-6.45,1.32l-3.23.58-3.23.5c-1.08.16-2.15.41-3.22.64a11.42,11.42,0,0,1-3.25.19A16,16,0,0,1,175,324.5l0-.5a16,16,0,0,1,6.38-2.57,11.42,11.42,0,0,1,3.25-.14c1.09.11,2.18.26,3.27.31l3.27.17,3.27.25c2.18.2,4.36.39,6.55.67Z"/><path d="M240,312.49c3.25-.41,6.5-.68,9.75-1l4.87-.42,4.87-.35c1.62-.11,3.25-.31,4.87-.48a25.67,25.67,0,0,1,4.87,0,32.6,32.6,0,0,1,9.75,2.23v.5a32.6,32.6,0,0,1-9.75,2.27,25.67,25.67,0,0,1-4.87,0c-1.63-.17-3.25-.36-4.88-.47l-4.88-.33-4.88-.4c-3.25-.33-6.5-.59-9.75-1Z"/><path d="M271,303.75c3.42-.4,6.83-.66,10.25-1l5.13-.41,5.13-.34c1.71-.11,3.42-.31,5.13-.48a28.37,28.37,0,0,1,5.13,0A35.76,35.76,0,0,1,312,303.75v.5a35.76,35.76,0,0,1-10.25,2.25,28.37,28.37,0,0,1-5.12,0c-1.71-.17-3.42-.37-5.12-.48l-5.12-.34-5.12-.41c-3.42-.34-6.83-.6-10.25-1Z"/><path d="M249.94,332.16c2.14-.55,4.3-1,6.47-1.37l3.26-.53,3.28-.4c1.09-.12,2.19-.32,3.29-.49a11.22,11.22,0,0,1,3.29,0,15.08,15.08,0,0,1,6.48,2.46l0,.5a17.11,17.11,0,0,1-6.54,2,11.69,11.69,0,0,1-3.22-.06c-1.07-.17-2.15-.36-3.23-.46l-3.24-.27-3.25-.3-6.54-.63Z"/><path d="M290,331.46l12.24-1,12.22-.89c2-.15,4.07-.39,6.1-.61a42.71,42.71,0,0,1,6.1-.21c2,.08,4.08.23,6.13.51a38.53,38.53,0,0,1,6.18,1.23l0,.5a35.8,35.8,0,0,1-6.06,1.78,56.59,56.59,0,0,1-6.11,1,39.8,39.8,0,0,1-6.14.16c-2.05-.12-4.1-.27-6.15-.33l-6.14-.24-6.14-.36c-4.09-.32-8.18-.59-12.26-1Z"/><path d="M284,361.25c-1.5.4-3,.69-4.5,1l-2.25.41L275,363c-.75.11-1.5.31-2.25.48a5.49,5.49,0,0,1-2.25,0,9.06,9.06,0,0,1-4.5-2.25v-.5a9.06,9.06,0,0,1,4.5-2.25,5.49,5.49,0,0,1,2.25,0c.75.17,1.5.37,2.25.48l2.25.34,2.25.41c1.5.31,3,.6,4.5,1Z"/><path d="M250,284.44c-4.33.42-8.66.7-13,1.05l-6.5.44-6.5.36c-2.17.12-4.33.32-6.5.5a46.37,46.37,0,0,1-6.5.05c-2.17-.14-4.34-.36-6.5-.71a41.37,41.37,0,0,1-6.51-1.48v-.5a41.37,41.37,0,0,1,6.49-1.54c2.17-.37,4.33-.61,6.5-.77a46.38,46.38,0,0,1,6.5,0c2.17.16,4.34.35,6.5.45l6.5.31,6.5.39c4.33.32,8.67.56,13,.95Z"/><path d="M403,297.45c3.09-.32,6.18-.51,9.28-.77l4.64-.3,4.63-.22c1.54-.07,3.09-.23,4.64-.36a23.13,23.13,0,0,1,4.63.09,29.63,29.63,0,0,1,9.19,2.48v.5a29.63,29.63,0,0,1-9.31,2,23.13,23.13,0,0,1-4.62-.14c-1.54-.21-3.07-.45-4.61-.59l-4.62-.45-4.61-.53c-3.07-.41-6.15-.76-9.23-1.23Z"/><path d="M427,312.6c3.41-.65,6.86-1,10.33-1.39q2.6-.2,5.22-.33t5.24-.06c1.75,0,3.51,0,5.27,0,.88,0,1.75.08,2.63.17s1.73.27,2.59.45a29.36,29.36,0,0,1,9.86,4.07L468,316a47.78,47.78,0,0,1-10.46.39,33.26,33.26,0,0,1-5-.66c-1.66-.34-3.34-.69-5-.92s-3.38-.43-5.07-.61-3.4-.36-5.1-.5c-3.41-.33-6.85-.47-10.3-.61Z"/><path d="M479.86,302.33c2.15-.85,4.35-1.56,6.57-2.22q1.67-.47,3.35-.91t3.39-.75c1.14-.23,2.27-.54,3.4-.81a12.1,12.1,0,0,1,3.46-.27,15.65,15.65,0,0,1,7,2v.5a19.45,19.45,0,0,1-6.67,2.49,13.06,13.06,0,0,1-3.35.22c-1.13-.07-2.26-.16-3.39-.15s-2.25,0-3.38.07-2.27,0-3.4.08c-2.28,0-4.55.16-6.86.24Z"/><path d="M468,294.25c-3.08.4-6.17.66-9.25,1l-4.62.41-4.62.34c-1.54.11-3.08.31-4.62.48a23.11,23.11,0,0,1-4.62,0,29.61,29.61,0,0,1-9.25-2.25v-.5a29.61,29.61,0,0,1,9.25-2.25,23.11,23.11,0,0,1,4.63,0c1.54.17,3.08.37,4.63.48l4.63.34,4.63.41c3.08.34,6.17.6,9.25,1Z"/><path d="M469,281.37c-3.5.36-7,.59-10.51.89l-5.25.36-5.25.28c-1.75.09-3.5.27-5.25.42a29.77,29.77,0,0,1-5.25,0A37.39,37.39,0,0,1,427,280.93v-.5a37.39,37.39,0,0,1,10.52-2.14,29.77,29.77,0,0,1,5.25.08c1.75.19,3.5.4,5.24.53l5.25.39,5.25.47c3.5.37,7,.67,10.49,1.11Z"/><path d="M410,281.08a21,21,0,0,1-2.8,1.59l-1.48.64-1.52.52c-.51.16-1,.4-1.54.6a2.66,2.66,0,0,1-1.59.1,4.76,4.76,0,0,1-1.59-.72,5.22,5.22,0,0,1-1.51-1.54l0-.5a6.61,6.61,0,0,1,1.5-1.48,5.12,5.12,0,0,1,1.42-.76,2.33,2.33,0,0,1,1.42,0,10,10,0,0,0,1.47.36l1.47.17,1.5.19,3.1.39Z"/><path class="cls-1" d="M232,347.61c-2.33,18.54-.84,26.78,5.9,57.73a210.81,210.81,0,0,0,15.77,46.81,199.49,199.49,0,0,0,25.74,40.23"/><path class="cls-2" d="M271,507.4c-10.24-6.1-37.32-24.3-52-45.9A134.87,134.87,0,0,1,198.5,413"/><path class="cls-2" d="M359.27,499.94c12.17-4.36,46.11-18.12,54.23-22.44,9-4.82,17.69-10.88,35-23A83.77,83.77,0,0,0,466,439c1.91-2.29,3.24-4.14,3.54-4.56,8.83-12.54,5.25-37.07,4.11-43.89"/><path class="cls-3" d="M198.8,409.3a63,63,0,0,1,13.11-15.36A76,76,0,0,1,239,380.5c19.48-5.12,109.56-3.2,232,8"/><path class="cls-2" d="M247.28,418.42c22.48,6.83,53.88,10.6,90.18,9.58A449.27,449.27,0,0,0,471,404"/><path class="cls-2" d="M265.07,461.49a518.21,518.21,0,0,0,115.77-16A517.8,517.8,0,0,0,471.5,413"/><path class="cls-2" d="M334,490a658.44,658.44,0,0,0,64.57-28.38A658.61,658.61,0,0,0,472.5,418"/><path class="cls-2" d="M236.5,423c-3,3.82-6.52,7.86-10.5,12s-7.7,7.61-11.32,10.74"/><path class="cls-2" d="M255,466a31,31,0,0,1-13.4,15.4"/><path class="cls-4" d="M179,515c15.25-1.13,38.25-3.33,66-8,37-6.23,44.59-10.47,64.84-13.69C330.91,490,340.49,491.74,436,506c64.46,9.62,79.87,11.77,104.51,10.14a296.12,296.12,0,0,0,63.79-11.35"/><path d="M179,514.65c17.76-2.65,35.43-5.43,53-8.89,8.77-1.67,17.52-3.44,26.19-5.44,4.33-1,8.65-2,13-3.08s8.58-2.23,12.88-3.42,8.66-2.42,13.12-3.52,9-2,13.55-2.73a105.62,105.62,0,0,1,14.09-1.46c4.75-.12,9.42,0,14,.34,2.3.14,4.56.36,6.85.57l6.77.74c4.49.54,9,1.09,13.43,1.69q13.39,1.76,26.69,3.69c17.73,2.74,35.45,5.42,53.14,8.25s35.37,5.76,52.94,8.38c8.79,1.24,17.54,2.21,26.28,2.61,4.37.22,8.76.25,13.18.15s8.85-.31,13.27-.58a348,348,0,0,0,52.92-7.49l.2.67a297.29,297.29,0,0,1-52.73,10.49c-4.46.47-8.93.85-13.42,1.11s-9,.42-13.47.36a258.18,258.18,0,0,1-26.86-1.85c-8.91-1-17.8-2.23-26.67-3.48l-26.61-3.85-53.19-7.84c-8.86-1.31-17.73-2.63-26.6-3.86s-17.75-2.43-26.66-3.18c-4.45-.37-8.91-.6-13.37-.55a99.64,99.64,0,0,0-13.31,1.16q-6.63,1-13.18,2.41c-4.37,1-8.71,2-13.06,3.12a535.86,535.86,0,0,1-52.8,10.25q-26.61,4-53.46,5.92Z"/><path class="cls-5" d="M306.47,329q54.31,38.95,111,78,42.27,29.12,84,57"/><path d="M485.38,445.38c7.45-6,29.72.94,36.65,4,5.69,2.5,12.82,6.36,32,23.14,22,19.31,33.48,29.11,31.5,34.5-2.55,6.94-41.87,10.94-53.5,7-20.64-7-39.47-21.78-46.5-42C483.85,467.25,477.92,451.44,485.38,445.38Z"/><path class="cls-6" d="M103.75,439.15q28.89.1,59.09-.65,21.79-.55,42.88-1.54"/><path class="cls-6" d="M595.24,433.44q-41-.83-83-.94-20.23,0-40.21.08"/><path d="M344.5,544.48c18.48,1.16,25.14.26,94-.7,80.86-1.13,74.43,2.31,84,0,1.51-.37,7.33-2,10.51,1,2,1.89,2.84,5.5,1.56,7.82-2.19,4-10,3.16-13.07,3.31-34.5,1.7-37.81,1.89-98.51-.13-23-.77-46.27,2.18-69.19-.41-1.6-.18-7.26-.92-11.32,2.44a12.22,12.22,0,0,0-3.42,5c-3.05,6.87-11.46,10.43-18.54,13.44-14.31,6.07-56.83,12.45-70-9.22-4.58-7.53-6-19-.86-26.77,3.91-5.93,10.25-7.62,20.88-10.27,8.8-2.2,25.09-6.27,44.47-1C329.43,533,333.39,543.79,344.5,544.48Z"/><path class="cls-7" d="M149.79,476c8.85-7.57,21.21-9.43,32.86-9.56s23.46,1.14,34.83-1.41"/><path d="M204.14,270.41c2.14-3.06,2.32-3.93,3.08-4.86,2.64-3.26,8.4-2.66,15.78-1.95,20.12,1.94,22.93,1.85,25.78-.07,2.49-1.68,3.9-4.29,6.72-9.53,4.37-8.11,3.26-11.15,6.88-14.36,3.39-3,9.19-4.62,13.81-2.92C283.74,239.48,282.48,249,289,251s10.4-6.67,18.43-5.18c6,1.1,6.35,6.35,14.32,10.85,6.28,3.54,12.07,3.69,16.9,4,32.26,2.08,35,6.71,57.48,2.46,3.92-.74,3.22-3.48,6.14-7.86,3.19-4.78,10.94-7.23,17.41-6.27,5.45.81,8.94,3.87,11.29,2,1.81-1.42,1-4.25,2.92-5.08,2.07-.91,4.08,2,6,1.21,2.49-1,.8-6.84,3-8s6.34,3.61,12.62,8.64c4.52,3.62,9.47,7.58,15.58,9.88,11.53,4.33,17.18-1,24.65,4.65,3.56,2.71,7,7.51,5.74,10.43-.83,1.95-3.5,2.54-4.48,2.76-18.77,4.16-269-5.29-288.08-.29-.37.1-7.32,1.95-8.06.39C200.51,274.86,201.76,273.82,204.14,270.41Z"/><path d="M347.68,220.35a35.58,35.58,0,0,1,3.9-2.32,28.83,28.83,0,0,1,4.24-1.8,19.87,19.87,0,0,1,4.67-1,15.55,15.55,0,0,1,4.95.41l1.26.32.12,1.41q.21,2.53.35,5.07L363.95,221a15,15,0,0,1,6.19-2.79,20,20,0,0,1,6.49-.11,27,27,0,0,1,6,1.66c.48.2.94.42,1.41.63a7.68,7.68,0,0,1,1.41.82,4.52,4.52,0,0,1,1.15,1.21,2.05,2.05,0,0,1,.27,1.57,1.87,1.87,0,0,0-.74-1.17,3.72,3.72,0,0,0-1.21-.61,9.75,9.75,0,0,0-1.35-.31c-.49-.07-1-.15-1.46-.2a40.57,40.57,0,0,0-5.74-.42A22.39,22.39,0,0,0,371,222a13.27,13.27,0,0,0-4.59,2.21l-3,2.29-.18-3.76q-.12-2.54-.17-5.08l1.38,1.73a18.64,18.64,0,0,0-8-.54c-1.42.15-2.84.43-4.3.69S349.18,220.09,347.68,220.35Z"/><path d="M380.31,202.16a24,24,0,0,1,5.12-3.27,29.64,29.64,0,0,1,5.78-2.06c1-.23,2-.44,3-.58a15.92,15.92,0,0,1,3.3-.2,6.54,6.54,0,0,1,2,.43,5,5,0,0,1,2,1.37,4.67,4.67,0,0,1,1.1,2.24,3.93,3.93,0,0,1-.54,2.87l-2.06-3a45,45,0,0,1,4.77-.68,18.67,18.67,0,0,1,5,.26,11.58,11.58,0,0,1,4.69,2.05,7.65,7.65,0,0,1,2.9,4,10.78,10.78,0,0,0-7.92-3.12,39.73,39.73,0,0,0-8.69,1.39l-2.06-3c-.05.05,0,.12-.05,0a1,1,0,0,0-.2-.37,2,2,0,0,0-1.31-.52,18.1,18.1,0,0,0-2.6,0c-.94,0-1.88.1-2.82.19q-2.82.26-5.67.79C384.18,201.23,382.29,201.71,380.31,202.16Z"/><path class="cls-8" d="M334.41,179c4.81,4.82,11.78,8.41,18.57,8.85,5.7.37,12.33-2.23,17.12-5.35A16,16,0,0,0,376.88,170c.7-14-9.58-33.45-31-29.35C329,143.83,322.23,166.82,334.41,179Z"/><path class="cls-2" d="M26,583.24c33.68-64.93,63.94-119.56,88-161.7,45.12-79.18,67.68-118.77,99.43-165.67C247,206.22,264.69,185.75,301,128c24-38.15,42-70.26,53.48-91.26"/><path class="cls-2" d="M687.48,586.74c-23.67-38.4-59.47-97.15-102.09-170-49.26-84.17-67.11-117.88-105.82-182.43C453.92,191.59,414.81,138.62,361.7,49c-3-5.12-5.53-9.37-7.22-12.25"/><path class="cls-2" d="M26,582.94c26,.64,66.43,1.52,115.89,2.17,58.73.77,86.19.62,221.59.74,115.3.1,140.26.22,218.22.25,31.36,0,75.51,0,105.8,0"/><circle cx="77.92" cy="566.25" r="3.92"/><circle cx="122.69" cy="556.64" r="5.69"/><circle cx="173.76" cy="573.92" r="3.75"/><circle cx="637.74" cy="556.98" r="5.84"/><circle cx="570.25" cy="573.92" r="3.75"/><circle cx="490.66" cy="577.58" r="3.67"/><circle cx="659.86" cy="570.27" r="3.64"/><circle cx="592.39" cy="537.5" r="4.81"/><circle cx="159.31" cy="538.82" r="4.58"/><circle cx="103.75" cy="526.97" r="4.76"/></svg>