<svg id="Ebene_1" data-name="Ebene 1" xmlns="http://www.w3.org/2000/svg" viewBox="0 0 700 700"><defs><style>.cls-1,.cls-3,.cls-4,.cls-5,.cls-7,.cls-8{fill:none;}.cls-1,.cls-3,.cls-4,.cls-5,.cls-6,.cls-7,.cls-8{stroke:#000;}.cls-1,.cls-3,.cls-4,.cls-8{stroke-miterlimit:10;}.cls-1,.cls-6,.cls-7,.cls-8{stroke-width:3px;}.cls-2,.cls-6{fill:#fff;}.cls-3,.cls-5{stroke-width:2px;}.cls-4{stroke-width:1.5px;}.cls-5,.cls-6,.cls-7,.cls-8{stroke-linecap:round;}.cls-5,.cls-6,.cls-7{stroke-linejoin:round;}</style></defs><title>Zeichenfläche 1</title><path d="M306.67,444.75s41-14,54-16,18-4,32-2,35,7,45,9,30,1,36-4,13-13,10-15-23-4-28-10-3-16-8-18-25,10-32,10-23-2-27-5-23-12-42-17-30-3-34-7,0-26-8-26-20.6,9.4-28,16c-9,8-15.4,16.2-23,17-9,1-16,1-35,7-19.6,6.2-34,21-37,31s-7,14-3,20,33,14,55,16,36,1,41,2,5.6,2.9,9,5c8,5,18,8,20,1C304.67,455.25,303.67,450.75,306.67,444.75Z"/><path class="cls-1" d="M119.67,513.75c.7-2.1,48-36,134-36s158.5,36.5,175.5,38.5,43,2,51-4,32-27,38-31,20-15,24-7-4,24-4,24,3-10,35-8,39,5,38,10-11,29-25,31-70,5-88,11-64,34-81,41-49,20-105,18-98-7-118-15-50.9-32.7-59-44C125.17,528.25,117.17,521.25,119.67,513.75Z"/><path d="M316.17,497.25a231.3,231.3,0,0,1,32.4,3.57,117.93,117.93,0,0,1,16,4c1.33.39,2.63,1,3.94,1.51s2.47,1.11,3.71,1.66c2.46,1.1,4.93,2.18,7.41,3.23,4.94,2.17,9.92,4.24,14.92,6.25s10,4,15.07,5.8c2.53.9,5.07,1.73,7.62,2.39s5.2,1.19,7.85,1.62c5.3.9,10.68,1.49,16.09,2a118.17,118.17,0,0,1-16.32,0c-2.73-.21-5.45-.53-8.17-1a78.76,78.76,0,0,1-8-2A285.06,285.06,0,0,1,378,514.86c-2.49-1.09-5-2.21-7.44-3.35-1.23-.56-2.48-1.18-3.68-1.7s-2.36-1-3.62-1.47a143.93,143.93,0,0,0-15.37-4.48C337.46,501.36,326.83,499.33,316.17,497.25Z"/><path d="M519.17,494.25a15.56,15.56,0,0,1,2.78-4.67,18.41,18.41,0,0,1,4-3.6,11.51,11.51,0,0,1,2.68-1.29,5.76,5.76,0,0,1,1.87-.27,5,5,0,0,1,.61.07,3.55,3.55,0,0,1,.62.19c.24.14.49.25.72.41a5.74,5.74,0,0,1,2.69,5.16,8.84,8.84,0,0,0-4-2.32c-.15,0-.32,0-.47-.08s0,0,0,0,0,0,0,0-.36.15-.63.3c-.56.29-1.21.68-1.86,1.11-1.32.85-2.7,1.77-4.16,2.62A26.44,26.44,0,0,1,519.17,494.25Z"/><path d="M555.17,502.25a4.92,4.92,0,0,0,1.68-.06l1.69-.26,3.38-.53c2.26-.36,4.52-.67,6.79-1a97.16,97.16,0,0,1,13.82-.86,28.8,28.8,0,0,1,7.17.9,9.44,9.44,0,0,1,3.74,1.89,5,5,0,0,1,1.45,2.21,8.39,8.39,0,0,1,.25,1.22,9.34,9.34,0,0,1,0,1.22,8,8,0,0,1-1.73,4.05,16.1,16.1,0,0,1-2.75,2.74,36.33,36.33,0,0,1-6.14,3.82,81.68,81.68,0,0,1-13.09,4.93,69.28,69.28,0,0,1-6.84,1.59,57.62,57.62,0,0,1-7,.69,204.38,204.38,0,0,1-27.46-.58c9.1-.89,18.21-1.5,27.18-2.53,2.23-.28,4.47-.58,6.58-1a65.93,65.93,0,0,0,6.41-1.78,83.31,83.31,0,0,0,12.4-4.88,32.56,32.56,0,0,0,5.51-3.31c1.63-1.24,3-2.82,3.15-4.13,0-.16,0-.32,0-.49s0-.36-.07-.46A1.33,1.33,0,0,0,591,505a6.07,6.07,0,0,0-2.29-1.21,31.11,31.11,0,0,0-6.32-1.14c-4.42-.37-9-.37-13.51-.3l-6.83.12-3.43,0-1.72,0A5,5,0,0,1,555.17,502.25Z"/><path class="cls-2" d="M198.67,420.75c0,3,24,5,27,4s18-3,18-9-18-6-23-5S198.67,415.75,198.67,420.75Z"/><path class="cls-2" d="M243.67,433.75c-5-1-18-2-23,0s-17,3-15,6,17,5,28,6,29,0,29,0Z"/><path class="cls-2" d="M316.67,439.75c4.7-1.8,2-15,6-15s9-1,16-4,23-5,19-10-33,3-41,7-19,10-21,12-6,9,0,10S308.67,442.75,316.67,439.75Z"/><path class="cls-2" d="M321.67,388.75c2.4,1.6,11,6,15,6a5.76,5.76,0,0,0,6-6c0-3-7-7-12-8s-17-5-18-2S318.67,386.75,321.67,388.75Z"/><path class="cls-3" d="M328.67,108.1c0-3.39,10.76-17.37,40.54-17.37s33.92,16.55,33.92,20.68-9.1,20.68-37.23,20.68S328.67,113.06,328.67,108.1Z"/><path class="cls-4" d="M403.13,111.41c0-5.79,5-11.58,8.27-12.41s10.76-4.14,10.76,5c0,9.93,0,24.82-9.1,20.68C402.22,119.68,403.13,119.68,403.13,111.41Z"/><path class="cls-3" d="M343.56,95.19S346.87,75,375,77.49s25.07,25.32,25.07,25.32"/><path d="M355.15,80.8a13.41,13.41,0,0,1,1,2.62,21.65,21.65,0,0,1,.58,2.68,21.36,21.36,0,0,1,.25,2.73,13.27,13.27,0,0,1-.16,2.8,13.27,13.27,0,0,1-1-2.62,21.35,21.35,0,0,1-.58-2.68,21.65,21.65,0,0,1-.25-2.73A13.41,13.41,0,0,1,355.15,80.8Z"/><path d="M361.77,78.31a17.22,17.22,0,0,1,1,3,28.2,28.2,0,0,1,.58,3.08,27.8,27.8,0,0,1,.25,3.12,17,17,0,0,1-.17,3.18,17,17,0,0,1-1-3,27.8,27.8,0,0,1-.58-3.08,28.2,28.2,0,0,1-.25-3.12A17.22,17.22,0,0,1,361.77,78.31Z"/><path d="M368.14,77.32a18.47,18.47,0,0,1,.64,3.24A30.35,30.35,0,0,1,369,83.8a29.93,29.93,0,0,1-.1,3.25,18.27,18.27,0,0,1-.52,3.26,18.27,18.27,0,0,1-.65-3.24,29.93,29.93,0,0,1-.23-3.24,30.35,30.35,0,0,1,.1-3.25A18.47,18.47,0,0,1,368.14,77.32Z"/><path d="M375,77.9a18,18,0,0,1,.52,3.22,29.58,29.58,0,0,1,.1,3.21,29.18,29.18,0,0,1-.23,3.2,17.83,17.83,0,0,1-.65,3.19,17.83,17.83,0,0,1-.52-3.22,29.18,29.18,0,0,1-.1-3.21,29.58,29.58,0,0,1,.23-3.2A18,18,0,0,1,375,77.9Z"/><path d="M382.45,79.14a17.87,17.87,0,0,1,.37,3.22,29.32,29.32,0,0,1,0,3.2,28.92,28.92,0,0,1-.37,3.17,17.67,17.67,0,0,1-.79,3.15,17.68,17.68,0,0,1-.38-3.22,28.91,28.91,0,0,1,0-3.2,29.31,29.31,0,0,1,.37-3.17A17.87,17.87,0,0,1,382.45,79.14Z"/><path d="M388.9,81.38a16.8,16.8,0,0,1,.35,3.12,27.49,27.49,0,0,1-.06,3.09,27.11,27.11,0,0,1-.39,3.07,16.62,16.62,0,0,1-.81,3,16.62,16.62,0,0,1-.36-3.13,27.11,27.11,0,0,1,.06-3.09,27.48,27.48,0,0,1,.39-3.07A16.8,16.8,0,0,1,388.9,81.38Z"/><path d="M394.69,85.93a12.7,12.7,0,0,1,.31,2.71,20.42,20.42,0,0,1-.1,2.66,20.14,20.14,0,0,1-.43,2.63,12.56,12.56,0,0,1-.85,2.59,12.56,12.56,0,0,1-.31-2.71,20.14,20.14,0,0,1,.11-2.66,20.41,20.41,0,0,1,.43-2.63A12.7,12.7,0,0,1,394.69,85.93Z"/><path class="cls-4" d="M361.77,113.06c-.25-1.65,15.72-17.37,14.89-1.65S362.59,118.86,361.77,113.06Z"/><path d="M374.89,118.18a24.43,24.43,0,0,1-3.49-1,29.28,29.28,0,0,1-3.32-1.41c-1.07-.56-2.07-1.25-3.14-1.81a20.75,20.75,0,0,0-3.33-1.38.35.35,0,0,1,0-.65l.07,0c1.18-.51,2.35-1,3.56-1.47s2.4-.89,3.63-1.27a45.45,45.45,0,0,1,7.54-1.62.08.08,0,0,1,0,.14,45.46,45.46,0,0,1-7.1,3c-1.22.4-2.46.71-3.69,1.05s-2.5.58-3.76.85l0-.68a20.75,20.75,0,0,0,3.25,1.56c1.13.42,2.32.7,3.44,1.13a29.3,29.3,0,0,1,3.26,1.53A24.45,24.45,0,0,1,375,118a.08.08,0,0,1-.06.14Z"/><path d="M376.41,112.58a5.44,5.44,0,0,1-1.84.65,4.93,4.93,0,0,1-1.83,0,18,18,0,0,0-1.82-.54,4.46,4.46,0,0,0-1.83.19,8.47,8.47,0,0,1-1.84.37,10.33,10.33,0,0,1-1.83.09,9.06,9.06,0,0,1-3.64-1,.11.11,0,0,1,0-.15l0,0a9.06,9.06,0,0,1,3.68-.91,10.33,10.33,0,0,1,1.83.15,8.46,8.46,0,0,1,1.82.43,4.46,4.46,0,0,0,1.83.26,18,18,0,0,0,1.84-.48,4.93,4.93,0,0,1,1.83.09,5.44,5.44,0,0,1,1.82.71.12.12,0,0,1,0,.16Z"/><path d="M418.89,124a40.92,40.92,0,0,1-4.33-2.33A45,45,0,0,1,410.5,119c-1.28-1-2.5-2.12-3.81-3.09q-1-.73-2-1.4c-.34-.23-.69-.45-1-.66l-.52-.34-.26-.18-.14-.11-.07-.06a.63.63,0,0,1-.17-.35.17.17,0,0,1,0-.06h0a.8.8,0,0,1,.37-.53,2,2,0,0,1,.34-.19,5.36,5.36,0,0,1,.63-.24,11.32,11.32,0,0,1,1.23-.31c.82-.16,1.64-.26,2.45-.35,1.63-.17,3.26-.3,4.89-.34s3.26,0,4.89.11,3.25.24,4.88.5a.08.08,0,0,1,0,.15c-3.25.45-6.48.67-9.71.83l-4.84.15-2.39.14c-.39,0-.79.06-1.17.11a4.55,4.55,0,0,0-.54.1l-.21.07c-.06,0-.06.06,0-.08v-.07a.25.25,0,0,0-.08-.23l0,0,.09.09.22.2.46.4c.31.27.62.52.95.77.64.5,1.31,1,2,1.42,1.37.89,2.83,1.63,4.24,2.46a48.13,48.13,0,0,1,4,2.79,43.08,43.08,0,0,1,3.76,3.16.08.08,0,0,1-.08.12Z"/><path d="M421.33,118.19a23,23,0,0,1-4.74-.63c-1.54-.34-3.08-.72-4.58-1.21s-3-1.13-4.44-1.67a37.75,37.75,0,0,0-4.55-1.28.33.33,0,0,1-.08-.62l0,0c1.54-.8,3.05-1.66,4.62-2.38s3.12-1.5,4.71-2.18a80.52,80.52,0,0,1,9.8-3.47.08.08,0,0,1,.06.14,80.52,80.52,0,0,1-9.22,4.8c-1.58.7-3.2,1.31-4.8,2s-3.26,1.18-4.89,1.76l0-.65a34.87,34.87,0,0,0,4.51,1.41c1.54.35,3.1.6,4.64,1s3,.86,4.52,1.35,3,1.07,4.44,1.58h0a.07.07,0,0,1,0,.14Z"/><path d="M414.2,98.3a39.08,39.08,0,0,1-2.39,3.59c-.86,1.15-1.73,2.28-2.66,3.36s-2,2.06-3,3.08a31.92,31.92,0,0,0-2.82,3.24l-.34-.39c1.47-1,2.87-2.17,4.35-3.2s3-2,4.47-3,3.07-1.86,4.64-2.73,3.18-1.68,4.85-2.41a.08.08,0,0,1,.08.13c-1.37,1.19-2.8,2.28-4.26,3.34s-2.93,2.07-4.46,3-3.08,1.84-4.63,2.74-3.19,1.67-4.75,2.55h0a.26.26,0,0,1-.32-.4,31.93,31.93,0,0,0,2.69-3.34c.83-1.17,1.61-2.38,2.51-3.49s1.86-2.17,2.84-3.22a39.08,39.08,0,0,1,3.12-3,.08.08,0,0,1,.12.1Z"/><circle cx="346.04" cy="103.96" r="2.48"/><path d="M329.16,110.35a30.9,30.9,0,0,0,4.05,3.15,12.46,12.46,0,0,0,4.45,2c.78.13,1.7.18,2.54.26a18.25,18.25,0,0,1,2.55.41,22.68,22.68,0,0,1,5,1.74l0,.2a22.42,22.42,0,0,1-5.27,0,33.13,33.13,0,0,1-5.13-1.09,10.08,10.08,0,0,1-2.52-1.18,17.74,17.74,0,0,1-2.16-1.59,26.9,26.9,0,0,1-3.6-3.82Z"/><path d="M341.2,124.7a13.3,13.3,0,0,1,5-.83,12.58,12.58,0,0,1,2.61.29c.85.19,1.65.43,2.44.68a28.68,28.68,0,0,1,4.7,1.88,8.23,8.23,0,0,1,3.62,3.69,14.78,14.78,0,0,0-4.24-2.26c-1.51-.49-3.11-.89-4.68-1.41l-2.32-.76c-.38-.12-.74-.23-1.11-.32l-1.17-.26C344.51,125.11,342.9,124.91,341.2,124.7Z"/><path class="cls-4" d="M377.49,132.3a9.61,9.61,0,0,0,5,4.14c1.39.47,3.27.31,7,0a10.84,10.84,0,0,0,4.14-.83,8.29,8.29,0,0,0,3.31-2.9,7.14,7.14,0,0,0,1.24-3.52c0-3.84-2.15-5.56-2.45-6.44"/><path d="M381.62,130.05a1.33,1.33,0,0,0,.62.86,10,10,0,0,0,.92.59c.65.37,1.32.75,2,1.18A10.39,10.39,0,0,1,387,134.2a4.41,4.41,0,0,1,.77,1,1.3,1.3,0,0,1,0,1.31,1.33,1.33,0,0,0-.63-.86,10.06,10.06,0,0,0-.92-.59c-.65-.37-1.32-.75-2-1.18a10.48,10.48,0,0,1-1.88-1.52,4.41,4.41,0,0,1-.77-1A1.3,1.3,0,0,1,381.62,130.05Z"/><path d="M386.54,127.76a6.26,6.26,0,0,0,2,1.67c.71.46,1.45.92,2.18,1.45a10.78,10.78,0,0,1,2.06,1.91,5,5,0,0,1,.77,1.3,2.38,2.38,0,0,1,.12,1.51,6.32,6.32,0,0,0-2-1.66c-.71-.46-1.45-.92-2.18-1.46a10.9,10.9,0,0,1-2.06-1.92,5,5,0,0,1-.77-1.3A2.38,2.38,0,0,1,386.54,127.76Z"/><path d="M391.88,125.8a15.79,15.79,0,0,0,1.78,1.2c.6.35,1.2.71,1.8,1.13a9,9,0,0,1,1.7,1.47,3.68,3.68,0,0,1,1,2.09,16.14,16.14,0,0,0-1.78-1.2c-.6-.35-1.2-.71-1.79-1.13a9.11,9.11,0,0,1-1.7-1.47A3.69,3.69,0,0,1,391.88,125.8Z"/><path class="cls-5" d="M119.17,517.25s51,2.36,79.5,19.18,54.5,37.82,110,37.32,85.35-3.65,105-5.67,70.72-19.9,70.72-19.9-46.72,19.9-72.22,25.07c-11.17,2.27-55,10.9-113,8-61-3-96-24-122-37s-58-27-58-27,45,40,88,56a335.08,335.08,0,0,0,125,21c39-1,104.21-20.54,104.21-20.54"/><path class="cls-6" d="M498.17,542.25s-86,19-142,17-66-7-66-7,23,8,31,15,23,25,25,34.2,2,21.8,0,22.8a11.45,11.45,0,0,1-10,0c-4-2-34-23-42-28s-23.2-31.5-26-35c-4-5-11-8-22-14-10.2-5.6-43-28-65-35-16-5.1-62,4.5-62,4.5"/><circle cx="233.17" cy="526.25" r="5"/><path d="M330.69,590.75a22.67,22.67,0,0,1,5.69,7.33,13.64,13.64,0,0,1,.88,2.32,8.87,8.87,0,0,1,.35,2.73,5.46,5.46,0,0,1-1.11,3.18,6.73,6.73,0,0,1-.65.67,8.76,8.76,0,0,1-.73.52,7.15,7.15,0,0,1-1.47.64,11.16,11.16,0,0,1-5.32,0,22.35,22.35,0,0,1-4.51-1.53,27.64,27.64,0,0,1-7.65-5.13c3,.68,5.86,1.5,8.68,2.16a39.19,39.19,0,0,0,4.13.77,9.6,9.6,0,0,0,3.56-.09,3.32,3.32,0,0,0,.59-.23c.07,0,.12-.09.19-.12l.14-.13a1.75,1.75,0,0,0,.39-1,10.39,10.39,0,0,0-.4-3.68C332.75,596.45,331.67,593.67,330.69,590.75Z"/><path class="cls-7" d="M338.17,279.25s-4-8,0-14,5-11-1-12-19.64,9.41-31,18c-3.57,2.7-17,11-24,12s-30,3-42,10-16,10-11,17,17,20,40,20,52-1,68-4,27-6.86,42-5c14.79,1.83,14.88.27,25.86,2.42,6.21,1.21,13.14-14.42,13.14-14.42s-3,3-4,12,6,16,11,16,0-17,7-25,11-15,17-17,0-6-4-5-7,3-11,5-12,8-17,8-7,0-13-2a62.47,62.47,0,0,1-11-5s0-5,2-7,6-3,3-4-12,2-15,4-12,1-20-1A109.37,109.37,0,0,1,338.17,279.25Z"/><path d="M339.39,285.38a30.63,30.63,0,0,1,4.83.87c1.57.4,3.12.85,4.64,1.39s3,1.17,4.51,1.86a30.2,30.2,0,0,1,4.3,2.38,30.32,30.32,0,0,1-4.82-.91c-1.57-.41-3.1-.88-4.62-1.43s-3-1.14-4.52-1.82A30.56,30.56,0,0,1,339.39,285.38Z"/><path d="M379.3,297.5a21.31,21.31,0,0,1-3.66-.17c-1.19-.14-2.35-.35-3.49-.55a15.33,15.33,0,0,1-3.53-1.05,13.16,13.16,0,0,1-3.18-1.89,27.39,27.39,0,0,1,3.62.38l3.45.59a19.79,19.79,0,0,1,3.52,1A15.52,15.52,0,0,1,379.3,297.5Z"/><path d="M391.44,301a8.27,8.27,0,0,1,2.56,0,11.47,11.47,0,0,1,2.39.63,10,10,0,0,1,1.14.52c.34.19.68.38,1,.59a12.81,12.81,0,0,1,2,1.49,6.73,6.73,0,0,1-2.58,0,8.46,8.46,0,0,1-1.23-.32l-1.1-.4a16.94,16.94,0,0,1-2.18-1A9.6,9.6,0,0,1,391.44,301Z"/><circle cx="261.17" cy="296.25" r="3"/><path d="M248.84,325.43a32.92,32.92,0,0,1,5-2.36,14.89,14.89,0,0,1,2.73-.78c.93-.17,1.82-.26,2.71-.37,1.81-.17,3.63-.23,5.45-.24a37.28,37.28,0,0,1,5.48.33,37.85,37.85,0,0,1-5.34,1.23c-1.78.3-3.56.52-5.36.67-.9.1-1.82.18-2.68.26a23.93,23.93,0,0,0-2.56.41A44.87,44.87,0,0,1,248.84,325.43Z"/><path class="cls-8" d="M307.17,282.25a76.28,76.28,0,0,0-12.78,0l-18.93,2"/><path d="M331.08,261.25a24.65,24.65,0,0,1,.11,4.22c-.06,1.39-.19,2.76-.35,4.12a28.42,28.42,0,0,0-.33,4,39.12,39.12,0,0,1-.24,4.19,15.92,15.92,0,0,1-1.32-4.06,12.87,12.87,0,0,1-.25-2.17,17.42,17.42,0,0,1,.15-2.16,30.86,30.86,0,0,1,.8-4.11A21.2,21.2,0,0,1,331.08,261.25Z"/><path class="cls-8" d="M239,320.48s29.18-10.22,42.18-10.22,14,7,19,11,24.5,22.5,31.5,18.5-19-26-19-26,9.5-6.5,35.5-3.5,58.25,13.88,58.25,13.88"/><path class="cls-2" d="M315.8,318.75s10.38,9.13,12.5,13.5-11.37,1-11.37,1l-10.37-8.36Z"/><path class="cls-7" d="M288.17,236.25s16.25-6.38,28-9c13.48-3,44-7,70-5s41.7,7.7,41.7,7.7"/><path class="cls-6" d="M364.17,182.25a33.54,33.54,0,0,1,2-8c2.17-6.35,14-13,4-14s-29,12-33,16-14,10-20,13-13,9-22,12-13,10-15,15-6,16-7,17-5,3-3,5,14.33,1.49,19-2c3.52-2.63,9-9.5,24.25-14.54,9.5-2.46,10.75-1.46,12.75.54s7.9,8.83,9.9,10.83,6.1,4.33,9.1,2.33,3.36-2.9,2.25-6.42c-.95-3-6.25-6.73-7.25-9.73s2.92-3.93,9-5c4.92-.87,20-4,47,3s30,12,32,16,3,9,7,14c3.4,4.2,14,14,16,8s-4-8-3-17,8-11,3-17-22-2-22-2-9-11-28-21A278.77,278.77,0,0,0,364.17,182.25Z"/><circle cx="295.67" cy="216.75" r="2.5"/><path d="M329.67,190.65c-2.58.64-5.16,1.27-7.7,2-1.27.35-2.54.73-3.78,1.14a32.56,32.56,0,0,0-3.63,1.37,60.5,60.5,0,0,1-7.35,3.08,35.39,35.39,0,0,1-7.93,1.54l-.11-.28a35.36,35.36,0,0,1,7-4.07,60.62,60.62,0,0,1,7.57-2.52,45.16,45.16,0,0,1,7.93-1.73c2.66-.35,5.3-.66,8-.84Z"/><path d="M361.67,188.5a19.88,19.88,0,0,1,4.43.34,30.2,30.2,0,0,1,8.33,2.77,19.69,19.69,0,0,1,3.75,2.38,32.91,32.91,0,0,1-4.31-.93c-1.4-.38-2.77-.79-4.13-1.25s-2.71-.95-4.06-1.48A33.37,33.37,0,0,1,361.67,188.5Z"/><path d="M386.67,197.25a28.2,28.2,0,0,1,4.6,1.13q2.24.72,4.4,1.65a45.18,45.18,0,0,1,4.13,2.24,27.91,27.91,0,0,1,3.86,2.74,28.42,28.42,0,0,1-4.54-1.34c-1.46-.54-2.88-1.16-4.28-1.82s-2.82-1.29-4.19-2A28.75,28.75,0,0,1,386.67,197.25Z"/><path d="M410.67,209.25a11.49,11.49,0,0,1,3.26.85,16.74,16.74,0,0,1,5.48,3.69,11.37,11.37,0,0,1,2,2.71,21.31,21.31,0,0,1-3-1.47c-.93-.54-1.83-1.11-2.71-1.7s-1.74-1.21-2.59-1.87A21.67,21.67,0,0,1,410.67,209.25Z"/><path d="M446.67,225.25l-1.25,3.06c-.39,1-.73,2-1,2.94s-.56,2-.79,3l-.68,3.24a7.85,7.85,0,0,1-.88-3.36,10.3,10.3,0,0,1,2-6.6A7.9,7.9,0,0,1,446.67,225.25Z"/><path d="M445.17,248.25a7.71,7.71,0,0,1,1.08,1.1,8.32,8.32,0,0,1,.71,1,8.08,8.08,0,0,1,.54,1.13,7.54,7.54,0,0,1,.41,1.49,2.68,2.68,0,0,1-1.6-.46,3.42,3.42,0,0,1-1.08-1.15,3.46,3.46,0,0,1-.46-1.51A2.7,2.7,0,0,1,445.17,248.25Z"/><path d="M363.92,166.5a39.74,39.74,0,0,1-1.14,4.13l-1.2,3.6L361,176c-.22.61-.44,1.25-.7,1.85a29,29,0,0,1-1.85,3.89,9,9,0,0,1-1.26-4.38,12.81,12.81,0,0,1,.11-2.22,12.3,12.3,0,0,1,.53-2.21,11.35,11.35,0,0,1,2.29-3.92A8.52,8.52,0,0,1,363.92,166.5Z"/><path d="M339.17,211a5.46,5.46,0,0,1,1.64-1.15,7.59,7.59,0,0,1,1.79-.6,8.08,8.08,0,0,1,1.89,0,5.39,5.39,0,0,1,1.93.54,5.86,5.86,0,0,1-1.72,1,7.48,7.48,0,0,1-1.76.45,8.32,8.32,0,0,1-1.81.16A5.92,5.92,0,0,1,339.17,211Z"/></svg>