<svg id="Ebene_1" data-name="Ebene 1" xmlns="http://www.w3.org/2000/svg" viewBox="0 0 700 700"><defs><style>.cls-1,.cls-2,.cls-5,.cls-6{fill:#fff;}.cls-1,.cls-2,.cls-3,.cls-4,.cls-5,.cls-7,.cls-8,.cls-9{stroke:#000;stroke-miterlimit:10;}.cls-1,.cls-7{stroke-width:4px;}.cls-2,.cls-4,.cls-8{stroke-width:3px;}.cls-3,.cls-4,.cls-7,.cls-8,.cls-9{fill:none;}.cls-3,.cls-8{stroke-linecap:round;}.cls-3,.cls-5{stroke-width:5px;}</style></defs><title>Zeichenfläche 4</title><path d="M615.45,266.33c.87,11.16,1.9,49-8.43,49.66s-30.94-30.73-31.24-44.73,3.23-53,22.37-54.62C613.44,215.34,614.5,254.14,615.45,266.33Z"/><path d="M341.19,563.32s-3.07,34-1.74,35.33,1.66,2.67,5.66,2.34,3.36-13.66,6.36-14,30-.61,30-.61l0-12.67s-27.67,2.28-29,.94-3-12.34-3-12.34Z"/><path class="cls-1" d="M344.1,192.84l5.66,256.83L354.62,517l64.67.13S378,193.42,374.62,192.9,344.1,192.84,344.1,192.84Z"/><polygon class="cls-2" points="259.97 340.98 436.97 341.33 459.87 391.37 207.86 394.87 259.97 340.98"/><path class="cls-1" d="M182.7,477.21S265,344.72,285,313.82s70.22-111.39,70.22-111.39l-38.93-33.49s-19.06,28.79-24.07,33.37-10,13.56-15,13.55-11-7-11-7l-18.87,22.38s12.8,11.44,11.79,20.87c-1.07,9.88-1,22.51-10,21.6a67.3,67.3,0,0,0-15,0s-17,21.07-22.05,26.06-18,17.11-18,17.11,4.94,27.86-.07,35.85-15,21.71-33.09,46.31-34.71,48.31-34.71,48.31l7.54,37Z"/><polygon class="cls-1" points="490.73 480.42 374.6 202.47 382.29 177.95 394.89 160.25 538.77 464.32 522.67 488.89 490.73 480.42"/><path class="cls-1" d="M99.79,431.75C105.21,437,218.64,504.83,337.64,505s229.11-53.7,234.11-52.64,13,10.08,17,18.59,11.71,16.42,7.83,21.46-56.36,52.73-164,65.87c-120,14.66-183,12.38-277-24.75s-90.27-58.13-90.07-63.63,9.23-19.59,14.25-26.53S93.79,426,99.79,431.75Z"/><line class="cls-3" x1="232.76" y1="176.15" x2="208.69" y2="203.94"/><line class="cls-3" x1="269.01" y1="205.28" x2="244.51" y2="234.62"/><line class="cls-4" x1="231.9" y1="177.94" x2="266.06" y2="208.95"/><line class="cls-4" x1="211.89" y1="200.57" x2="247.36" y2="231.42"/><path class="cls-4" d="M194,316.84S172.8,256,172.15,249.65s1.71-24,16.38-21.63,19.59,41,19.59,41l3.94,30.67Z"/><path d="M174.09,238.6A143.32,143.32,0,0,1,184,255a181,181,0,0,1,7.93,17.48c1.14,3,2.25,6,3.25,9s1.94,6.1,2.75,9.2a138.88,138.88,0,0,1,3.79,18.8c-2-6.07-4-12.12-6-18.11s-4.23-11.95-6.56-17.83c-1.12-3-2.33-5.89-3.54-8.81s-2.46-5.84-3.71-8.75C179.34,250.21,176.7,244.44,174.09,238.6Z"/><path d="M181.37,229.18a153.11,153.11,0,0,1,10.13,17.23,192.9,192.9,0,0,1,8.12,18.29c1.16,3.13,2.3,6.27,3.33,9.44s2,6.37,2.82,9.6a149.05,149.05,0,0,1,3.91,19.61c-2-6.35-4-12.66-6.15-18.93s-4.33-12.49-6.71-18.65c-1.15-3.1-2.39-6.16-3.63-9.22s-2.53-6.1-3.81-9.16C186.78,241.32,184.06,235.29,181.37,229.18Z"/><path class="cls-1" d="M383.18,218.57c27.53,90.75,30.85,125.49,40.37,162.25,6.71,25.91,14.49,50,20.84,78.37,1.22,5.46,2,15.15,9.29,20.35,10.61,7.6,20-4,35,5.4,6,3.77,7.84,10.38,11.62,23.36,4.91,16.86,4.49,31.31,3.91,47-.46,12.39,0,18.65-1.71,21.66-5.41,9.63-17.31,11.43-50.7,15.23-55.92,6.36-66,6.25-72.66-1.48-2.42-2.81-3.63-9.69-6-23.35-5.37-31.6-9.55-50.64-1.54-62.34A24.31,24.31,0,0,1,386,495.23c8.05-3.38,14.49-3,19.31-8.45,0,0,7.38-8.57,5.7-17.66-8.24-44.68-26.73-134.05-26.73-134.05a1083.53,1083.53,0,0,1-25.44-113.72"/><path d="M457.3,554.15c10.32-.79,19.3-1.63,21.28,8.71s-.05,26-.05,26,.29,5.38-21.31,7.78-17.34-14.23-17.33-21.54S436,555.77,457.3,554.15Z"/><path class="cls-5" d="M382.54,223.11c-5.93,1-14.47,3.66-19.41,4.84-5.76,1.37-5.39-13.54-7.89-20.72-5-14.29-13.27-7.2-29.8-23.11-15.58-15-13.4-36.89-13.31-38.27.22-3.78,1.25-21.41,16-34a46.53,46.53,0,0,1,41.51-9.5c22.84,5.94,38,29.63,35.93,47.94-2.15,19.23-10.39,24.15-25.38,44.6C374.6,202.46,388.79,222.06,382.54,223.11Z"/><circle cx="368.53" cy="216.79" r="2.26" transform="translate(151.01 584.9) rotate(-89.89)"/><path d="M314.82,305.93c-3.15-1.23-4.44-58,.12-60s42.89-3.25,44.89-1.58,4.44,58,1.83,60.34S318.26,307.27,314.82,305.93Z"/><path class="cls-6" d="M319.15,250.67c.6-1.31,34.67-2.12,36-1.15s1.65,7.55,0,9-34.36,2.27-36,1.39S317.81,253.59,319.15,250.67Z"/><path class="cls-1" d="M581.41,288.13q-72,1.23-144,3-39.51,1-79,2.18l-.59-41c5.75-.34,14.17-.82,24.34-1.28,33.22-1.52,58.11-1.54,77.34-1.85q61.46-1,120.67-.43Z"/><path d="M349,171.83c1.1-7-6.85-43.81-6.85-43.81l19.12-5.16,9.37,44Z"/><path class="cls-7" d="M342.11,128c8.56-6.27,22.34-10.08,32.94-2a25.45,25.45,0,0,1,8.66,27.53c-4,12.76-17.42,18.85-28,17.71C334.31,169,325.37,140.28,342.11,128Z"/><path class="cls-8" d="M355.08,287l86.68-2.94"/><path class="cls-8" d="M509.13,282.35l30-1.21"/><path class="cls-3" d="M384.75,188.61a24.68,24.68,0,0,1-17.68,11.51"/><path d="M112.65,490.09c8.67,5.06,17.37,10,26.2,14.67l6.64,3.48,6.67,3.4,6.7,3.35,6.75,3.26,6.76,3.24,6.8,3.16,13.64,6.25c9.11,4.13,18.27,8.2,27.35,12.48-9.54-3.12-19-6.59-28.27-10.33-4.67-1.85-9.27-3.84-13.89-5.82l-6.87-3.09L164.3,521l-6.75-3.35c-2.23-1.15-4.48-2.28-6.7-3.46l-6.62-3.61q-3.28-1.85-6.53-3.76A254,254,0,0,1,112.65,490.09Z"/><path d="M199.3,523.36c4.18,1.62,8.27,3.44,12.47,4.86a63,63,0,0,0,6.35,1.86c2.13.49,4.33.92,6.52,1.38l13.11,2.71c4.37.92,8.73,1.81,13.11,2.66s8.74,1.7,13.13,2.47c2.19.42,4.39.76,6.58,1.15l6.6,1.06c8.81,1.36,17.65,2.52,26.54,3.63a226.37,226.37,0,0,1-26.84-1.31c-8.92-.9-17.78-2.37-26.58-4.06s-17.51-3.78-26.17-6c-2.16-.58-4.33-1.08-6.51-1.76a61.65,61.65,0,0,1-6.36-2.38A133.73,133.73,0,0,1,199.3,523.36Z"/><path d="M252.37,548.25c6.36,1.31,12.67,2.59,19,3.65,3.18.5,6.34,1,9.52,1.44s6.36.84,9.56,1.16,6.39.65,9.59.93l4.81.4c1.61.11,3.21.23,4.82.36,6.43.47,12.88.87,19.34,1.5-6.46.62-12.94.87-19.43.84-3.24,0-6.49-.13-9.73-.27s-6.48-.46-9.72-.78-6.46-.8-9.66-1.34-6.4-1.17-9.56-2A120.81,120.81,0,0,1,252.37,548.25Z"/><path d="M326.5,551.13a66.17,66.17,0,0,1,8.61-1.27c2.87-.25,5.75-.38,8.62-.42s5.75,0,8.63.23a65.3,65.3,0,0,1,8.64,1.09,65.31,65.31,0,0,1-8.61,1.27q-4.31.38-8.62.41c-2.87,0-5.75,0-8.63-.23A66.17,66.17,0,0,1,326.5,551.13Z"/><path d="M356,556.47a21.4,21.4,0,0,1,4.38-1.08,37.84,37.84,0,0,1,4.33-.38,37,37,0,0,1,4.34.11,21.1,21.1,0,0,1,4.44.81,15.9,15.9,0,0,1-4.28,1.54,24,24,0,0,1-4.4.54,24.35,24.35,0,0,1-4.43-.26A16.07,16.07,0,0,1,356,556.47Z"/><path d="M366,526.83a60.71,60.71,0,0,1-8.24,1.21c-2.75.23-5.5.35-8.25.36s-5.5-.08-8.25-.29A59.91,59.91,0,0,1,333,527a59.91,59.91,0,0,1,8.24-1.21q4.12-.35,8.25-.36c2.75,0,5.5.08,8.25.29A60.71,60.71,0,0,1,366,526.83Z"/><path d="M317.51,534.42a19,19,0,0,1,4.37-.64,32,32,0,0,1,4.25.12,31.3,31.3,0,0,1,4.2.67A18.78,18.78,0,0,1,334.5,536a16,16,0,0,1-4.35.9,24.69,24.69,0,0,1-4.31,0,25.08,25.08,0,0,1-4.24-.77A16.22,16.22,0,0,1,317.51,534.42Z"/><path d="M183.81,496.23c5.94,2.64,11.84,5.23,17.87,7.44,3,1.09,6,2.16,9.11,3.06s6.14,1.81,9.26,2.56,6.22,1.46,9.4,2.17,6.32,1.55,9.44,2.44c6.25,1.73,12.41,3.67,18.62,5.59-6.47-.7-12.84-2-19.17-3.31-3.17-.62-6.32-1.35-9.47-1.94s-6.38-1.26-9.54-2a111.26,111.26,0,0,1-18.52-6.38A103.38,103.38,0,0,1,183.81,496.23Z"/><path d="M190.83,487.47c6.5,1.74,12.92,3.59,19.36,5.38l9.66,2.63,4.83,1.3,4.85,1.25,4.84,1.25,4.86,1.2,9.73,2.38c6.5,1.56,13,3.05,19.54,4.68a181.51,181.51,0,0,1-20-2.39c-3.32-.54-6.6-1.24-9.9-1.9s-6.55-1.51-9.81-2.32-6.49-1.76-9.71-2.73-6.42-2-9.58-3.13A182.64,182.64,0,0,1,190.83,487.47Z"/><path d="M290,510.78c4.15,0,8.24.27,12.32.52l12.23.81c4.07.28,8.14.6,12.22.93s8.16.68,12.27,1.24a87.49,87.49,0,0,1-12.34,1.1c-4.12.1-8.25,0-12.37-.28-2.05-.18-4.11-.35-6.16-.59S304,514,302,513.62A88.17,88.17,0,0,1,290,510.78Z"/><path d="M85,454a137,137,0,0,0,17.67,13.54l4.71,2.92,4.81,2.75,4.89,2.62,5,2.47,5,2.38,5.08,2.26,5.11,2.21c1.72.7,3.43,1.42,5.15,2.15,6.88,2.84,13.83,5.57,20.7,8.56q-10.9-2.71-21.52-6.37-2.65-.92-5.29-1.9l-5.25-2c-1.74-.71-3.45-1.47-5.18-2.21L120.71,481l-5-2.57q-2.48-1.35-4.93-2.75l-4.8-3c-1.57-1-3.11-2.14-4.65-3.22A83.82,83.82,0,0,1,85,454Z"/><path d="M98.75,443.71c2,1.41,3.92,2.86,5.85,4.22s3.83,2.7,5.79,4,3.94,2.5,6,3.71,4.1,2.36,6.21,3.67a24.58,24.58,0,0,1-7.22-1.54,32.86,32.86,0,0,1-12.29-8A24.74,24.74,0,0,1,98.75,443.71Z"/><path d="M142,466c2.76,1.49,5.39,3,8,4.53s5.31,2.93,8,4.31,5.4,2.71,8.14,4,5.54,2.56,8.35,4a39.24,39.24,0,0,1-9.19-1.77,52.65,52.65,0,0,1-16.58-8.59A39.47,39.47,0,0,1,142,466Z"/><path d="M508.07,531.61a75.38,75.38,0,0,1,8-5c2.74-1.54,5.55-2.94,8.38-4.26s5.72-2.56,8.66-3.66c1.47-.56,2.93-1.11,4.51-1.55a9,9,0,0,1,4.85-.13,11.72,11.72,0,0,0-4.32,1.51c-1.33.71-2.67,1.56-4.06,2.3-2.74,1.53-5.55,2.94-8.39,4.26s-5.72,2.55-8.67,3.66A75.38,75.38,0,0,1,508.07,531.61Z"/><path d="M559.84,513.74a77.08,77.08,0,0,1,7.73-4.76c2.62-1.47,5.28-2.83,7.93-4.19s5.31-2.68,8-4,5.35-2.65,8.15-3.89a41.27,41.27,0,0,1-7,5.91,64.62,64.62,0,0,1-7.83,4.64,79,79,0,0,1-8.31,3.63A63.2,63.2,0,0,1,559.84,513.74Z"/><path d="M513.92,512.76c3.57-1.86,7.16-3.55,10.74-5.26.89-.44,1.77-.88,2.67-1.29l2.67-1.3c.88-.45,1.78-.86,2.67-1.29l2.65-1.32,10.6-5.31c3.53-1.79,7.06-3.62,10.71-5.32a71.63,71.63,0,0,1-9.53,7.35,97.59,97.59,0,0,1-10.45,6c-1.81.86-3.63,1.71-5.48,2.5s-3.72,1.52-5.62,2.16A72.11,72.11,0,0,1,513.92,512.76Z"/><path d="M565.82,495.65a15.8,15.8,0,0,1,3-2.89,25,25,0,0,1,3.43-2.14,24.61,24.61,0,0,1,3.72-1.57,15.62,15.62,0,0,1,4.12-.8,15.62,15.62,0,0,1-3,2.9,24.61,24.61,0,0,1-3.43,2.13,25,25,0,0,1-3.73,1.56A15.8,15.8,0,0,1,565.82,495.65Z"/><path d="M505.46,496.34a33.8,33.8,0,0,1,4.66-2.48c1.57-.7,3.15-1.33,4.74-1.91s3.21-1.11,4.87-1.57a33.24,33.24,0,0,1,5.17-1.08,19.59,19.59,0,0,1-4.24,3.25,28.92,28.92,0,0,1-4.77,2.22,29.26,29.26,0,0,1-5.09,1.34A19.77,19.77,0,0,1,505.46,496.34Z"/><path d="M549.44,487.78c2.33-1.23,4.66-2.26,7-3.32l6.91-3.09,6.91-3.1c2.33-1,4.65-2.07,7.12-3a33.14,33.14,0,0,1-6,5,46.36,46.36,0,0,1-14.2,6.35A33.41,33.41,0,0,1,549.44,487.78Z"/><path d="M574.46,458.46C570.88,462.81,566,466,561,468.61a129.57,129.57,0,0,1-15.46,6.62c-2.65.92-5.31,1.79-8,2.6s-5.38,1.54-8.11,2.15A120.44,120.44,0,0,1,513,482.81c5.32-1.75,10.62-3.38,15.9-5.08,2.63-.88,5.27-1.7,7.89-2.61s5.24-1.76,7.84-2.71,5.2-1.87,7.78-2.86,5.15-2,7.69-3.05A63.71,63.71,0,0,0,574.46,458.46Z"/><path d="M200.43,412.55c1.7-3.76,3.66-7.36,5.7-10.91,1-1.79,2.08-3.52,3.13-5.27l3.27-5.18q3.33-5.14,6.95-10.09c2.41-3.3,4.91-6.55,7.65-9.64-1.7,3.76-3.65,7.37-5.69,10.91s-4.17,7-6.4,10.45l-3.41,5.09c-1.18,1.67-2.32,3.36-3.55,5C205.67,406.22,203.18,409.46,200.43,412.55Z"/><path d="M260.27,321.44c2.65-4.86,5.54-9.56,8.51-14.19,1.46-2.33,3-4.6,4.53-6.9l4.67-6.81,4.8-6.72c1.65-2.21,3.25-4.44,4.94-6.62,3.34-4.38,6.76-8.7,10.43-12.85-2.64,4.87-5.53,9.56-8.51,14.19-1.46,2.33-3,4.6-4.53,6.9l-4.67,6.81-4.8,6.71c-1.64,2.21-3.25,4.44-4.94,6.62C267.36,313,263.94,317.29,260.27,321.44Z"/><path d="M234.89,337.14c2.6-4.52,5.43-8.87,8.35-13.15,1.44-2.16,3-4.25,4.44-6.38l4.57-6.28,4.7-6.18c1.61-2,3.18-4.09,4.84-6.08,3.27-4,6.63-8,10.22-11.75-2.59,4.52-5.43,8.87-8.34,13.15-1.44,2.16-3,4.25-4.44,6.38l-4.58,6.27L250,319.31c-1.61,2-3.18,4.08-4.84,6.08C241.84,329.41,238.49,333.36,234.89,337.14Z"/><path d="M246.79,298.32a32.75,32.75,0,0,1,2.29-5.67,55.25,55.25,0,0,1,3-5.2,54.24,54.24,0,0,1,3.55-4.85,32.35,32.35,0,0,1,4.27-4.38,32.37,32.37,0,0,1-2.29,5.67,54.3,54.3,0,0,1-3,5.2,55.24,55.24,0,0,1-3.55,4.85A32.77,32.77,0,0,1,246.79,298.32Z"/><path d="M269,266.26c2.19-4,4.57-7.81,7-11.6,1.18-1.91,2.45-3.77,3.66-5.66l3.73-5.61q3.75-5.59,7.68-11.08c2.61-3.67,5.27-7.3,8.14-10.83A120.65,120.65,0,0,1,293,233.56q-3.38,5.87-7.16,11.49c-1.29,1.85-2.56,3.72-3.89,5.55s-2.67,3.64-4.08,5.4A121.73,121.73,0,0,1,269,266.26Z"/><path d="M299.13,234.56c2.17-4.46,4.58-8.75,7.08-13,1.23-2.13,2.54-4.21,3.82-6.31l4-6.22,4.09-6.13c1.41-2,2.78-4.06,4.24-6,2.87-4,5.83-7.94,9-11.72-2.16,4.46-4.58,8.76-7.08,13-1.23,2.14-2.55,4.21-3.82,6.31l-4,6.22-4.1,6.13c-1.41,2-2.78,4.06-4.24,6C305.29,226.84,302.33,230.78,299.13,234.56Z"/><path d="M310.33,234.7a50.51,50.51,0,0,1,3.12-6.92q1.77-3.32,3.83-6.46t4.37-6.11a49.83,49.83,0,0,1,5.09-5.64,49.82,49.82,0,0,1-3.11,6.92q-1.77,3.32-3.83,6.46t-4.37,6.1A50.51,50.51,0,0,1,310.33,234.7Z"/><path d="M148.74,446.88c2.16-4.46,4.56-8.76,7.06-13,1.22-2.14,2.54-4.21,3.81-6.32l3.95-6.23,4.08-6.14c1.41-2,2.77-4.06,4.23-6,2.86-4,5.82-7.95,9-11.73-2.16,4.46-4.56,8.76-7.06,13-1.22,2.14-2.54,4.21-3.81,6.32l-4,6.23L162,429.1c-1.41,2-2.77,4.06-4.23,6C154.89,439.15,151.94,443.1,148.74,446.88Z"/><path d="M137.21,444.14c1.95-3.92,4.13-7.68,6.41-11.37,1.11-1.86,2.32-3.67,3.48-5.5l3.62-5.4q3.67-5.36,7.64-10.53c2.64-3.45,5.36-6.83,8.33-10-1.94,3.92-4.13,7.68-6.41,11.38s-4.64,7.33-7.1,10.9l-3.75,5.31c-1.3,1.74-2.55,3.51-3.89,5.21C142.9,437.53,140.18,440.92,137.21,444.14Z"/><path d="M182.37,459.27a50.64,50.64,0,0,1,3.55-9.81,73.19,73.19,0,0,1,5.1-9,72.42,72.42,0,0,1,6.32-8.23,50.18,50.18,0,0,1,7.64-7.1c-1.57,3.15-3.34,6.08-5.12,9s-3.63,5.74-5.5,8.56-3.77,5.62-5.73,8.41S184.65,456.59,182.37,459.27Z"/><path d="M163.94,465.14a27.7,27.7,0,0,1,2.38-6,45.2,45.2,0,0,1,3.3-5.33,44.41,44.41,0,0,1,4-4.83,27.36,27.36,0,0,1,4.93-4.16,27.36,27.36,0,0,1-2.38,6,44.38,44.38,0,0,1-3.31,5.33,45.2,45.2,0,0,1-4,4.82A27.68,27.68,0,0,1,163.94,465.14Z"/><path d="M168.09,442.79a92,92,0,0,1,5.11-10.7q2.84-5.16,6.06-10.08t6.78-9.61a90.79,90.79,0,0,1,7.74-9,90.82,90.82,0,0,1-5.1,10.7q-2.84,5.16-6.06,10.07t-6.78,9.61A92,92,0,0,1,168.09,442.79Z"/><path d="M209.88,380.5A98.22,98.22,0,0,1,216,368.07q3.47-6,7.5-11.62t8.54-10.87a97.22,97.22,0,0,1,9.75-9.87c-2.24,4.09-4.73,7.95-7.25,11.78s-5.13,7.57-7.79,11.29-5.36,7.4-8.14,11S213,377.06,209.88,380.5Z"/><path d="M196.67,368.32A129.86,129.86,0,0,1,203.54,356q3.71-6,7.79-11.66t8.49-11.16a128.21,128.21,0,0,1,9.42-10.5A128.15,128.15,0,0,1,222.39,335q-3.71,6-7.8,11.66t-8.5,11.16A129.92,129.92,0,0,1,196.67,368.32Z"/><path d="M210.06,338.82a143.59,143.59,0,0,1,6.45-13.36q3.52-6.5,7.41-12.76t8.14-12.31a141.7,141.7,0,0,1,9.12-11.7,141.76,141.76,0,0,1-6.44,13.36q-3.52,6.5-7.42,12.76t-8.15,12.31A143.59,143.59,0,0,1,210.06,338.82Z"/><path d="M185.64,395.74a7.48,7.48,0,0,1,.19-3.16A9.06,9.06,0,0,1,187,390a8.89,8.89,0,0,1,1.86-2.07,7.41,7.41,0,0,1,2.82-1.44,7.4,7.4,0,0,1-.19,3.16,8.88,8.88,0,0,1-1.14,2.54,9.05,9.05,0,0,1-1.86,2.07A7.48,7.48,0,0,1,185.64,395.74Z"/><path d="M263.08,255.22a38.77,38.77,0,0,1,2.87-7.66,60.91,60.91,0,0,1,4-7,60,60,0,0,1,4.9-6.41,38.34,38.34,0,0,1,6-5.6,49.71,49.71,0,0,1-3.4,7.4q-1.93,3.51-4.15,6.82c-1.47,2.21-3,4.36-4.7,6.45A50.41,50.41,0,0,1,263.08,255.22Z"/><path d="M284.36,265.58a32.69,32.69,0,0,1,2.47-7.85,47.54,47.54,0,0,1,4-7.13,47,47,0,0,1,5.12-6.35,32.41,32.41,0,0,1,6.36-5.23,66.66,66.66,0,0,1-3.87,7.15c-1.39,2.27-2.81,4.48-4.29,6.67s-3,4.34-4.58,6.47A67.94,67.94,0,0,1,284.36,265.58Z"/><path d="M224.55,386.79a51.79,51.79,0,0,1,3.52-8.16q2-3.89,4.47-7.53a86.56,86.56,0,0,1,5.19-7.06,51.14,51.14,0,0,1,6.14-6.43,51.16,51.16,0,0,1-3.52,8.16,86.56,86.56,0,0,1-4.47,7.53q-2.42,3.65-5.19,7.06A51.79,51.79,0,0,1,224.55,386.79Z"/><path d="M247,376.09a86.08,86.08,0,0,1,11.06-1.78c3.71-.4,7.43-.61,11.15-.69s7.45,0,11.17.24a85.29,85.29,0,0,1,11.13,1.34c-3.73.52-7.43.79-11.13,1s-7.4.34-11.1.42-7.4.1-11.11,0S250.75,376.46,247,376.09Z"/><path d="M289.51,381.67c4.59-.85,9.2-1.37,13.82-1.76,2.31-.22,4.62-.32,6.94-.47s4.63-.18,6.94-.26l6.95,0c2.32.05,4.63.05,7,.17A138,138,0,0,1,345,380.49c-4.63.59-9.25.92-13.87,1.17-2.31.16-4.62.21-6.93.32l-6.93.2-6.93.09c-2.31,0-4.62,0-6.93,0C298.79,382.19,294.16,382.06,289.51,381.67Z"/><path d="M355.51,375.18a83.07,83.07,0,0,1,9.84-1.45c3.28-.33,6.57-.52,9.86-.62s6.59-.1,9.88,0A82.14,82.14,0,0,1,395,374a82.15,82.15,0,0,1-9.84,1.45c-3.28.33-6.57.52-9.86.61s-6.59.09-9.88,0A83.06,83.06,0,0,1,355.51,375.18Z"/><path d="M323.49,369.58a7.61,7.61,0,0,1,2.36-.86,9.62,9.62,0,0,1,2.19-.16,9.4,9.4,0,0,1,2.17.34A7.52,7.52,0,0,1,332.5,370a5.4,5.4,0,0,1-2.23,1.3,6.93,6.93,0,0,1-2.35.3,7,7,0,0,1-2.32-.5A5.45,5.45,0,0,1,323.49,369.58Z"/><path d="M345,360.62a41.12,41.12,0,0,1,7.53-1.81,61.45,61.45,0,0,1,7.67-.66,60.72,60.72,0,0,1,7.69.3,40.7,40.7,0,0,1,7.61,1.46,70.53,70.53,0,0,1-7.65.9q-3.8.27-7.58.34c-2.52.06-5,.06-7.59,0A71.82,71.82,0,0,1,345,360.62Z"/><path d="M290,347.11c7.69-.81,15.4-1.28,23.11-1.6,3.85-.19,7.71-.26,11.57-.38l11.57-.15,11.57.07c3.86.09,7.71.14,11.57.3,7.71.27,15.42.69,23.12,1.45-7.72.49-15.43.72-23.13.89-3.85.11-7.71.12-11.56.2l-11.56.09H324.7c-3.85,0-7.7,0-11.56-.12C305.43,347.72,297.72,347.54,290,347.11Z"/><path d="M262.5,357.71a107.22,107.22,0,0,1,11.25-1.16c1.88-.14,3.75-.17,5.63-.25l5.63-.08c3.75,0,7.5.12,11.25.34a106,106,0,0,1,11.25,1.18,106,106,0,0,1-11.25,1.16c-3.75.21-7.5.33-11.25.32l-5.62-.09c-1.87-.08-3.75-.11-5.62-.25A107.23,107.23,0,0,1,262.5,357.71Z"/><path d="M282.5,366a107,107,0,0,1,11.24-1.15c3.75-.23,7.49-.31,11.24-.31,1.85,0,3.79,0,5.57.07a8.32,8.32,0,0,0,2.36-.26,8.61,8.61,0,0,0,2.15-1.14,11.39,11.39,0,0,1,2.72-1.39,13,13,0,0,1,2.94-.6,23.78,23.78,0,0,1,5.73.36,52,52,0,0,0-5.47,1.09,11.77,11.77,0,0,0-2.44,1,10.93,10.93,0,0,0-2.1,1.46,9.33,9.33,0,0,1-2.65,1.74,9.94,9.94,0,0,1-3.17.61c-2,.08-3.77.07-5.66.08-3.75,0-7.49-.11-11.24-.35A107,107,0,0,1,282.5,366Z"/><path d="M286,388.22a109.62,109.62,0,0,1-11.4.91c-1.9.1-3.8.08-5.69.12l-5.69,0c-3.79-.08-7.58-.28-11.37-.58a108.41,108.41,0,0,1-11.35-1.42,108.39,108.39,0,0,1,11.4-.92c3.8-.13,7.59-.17,11.38-.08l5.69.21c1.89.12,3.79.2,5.68.38A109.62,109.62,0,0,1,286,388.22Z"/><path d="M362.84,436a137.58,137.58,0,0,1,1.75,14.46c.2,2.42.29,4.84.41,7.26s.12,4.85.16,7.27,0,4.85-.09,7.27-.16,4.84-.35,7.26A136.39,136.39,0,0,1,363.1,494c-.42-4.86-.59-9.69-.72-14.52-.1-2.42-.09-4.83-.15-7.24l-.07-7.24v-7.24c0-2.41,0-4.83.09-7.24C362.34,445.68,362.47,440.84,362.84,436Z"/><path d="M380,479a16,16,0,0,1,1.29,4.37,24.21,24.21,0,0,1,.28,4.43,23.88,23.88,0,0,1-.53,4.41,15.85,15.85,0,0,1-1.54,4.29,21.22,21.22,0,0,1-.81-4.44,37.34,37.34,0,0,1-.12-4.34,38.21,38.21,0,0,1,.37-4.33A21.52,21.52,0,0,1,380,479Z"/><path d="M377.76,466a141.51,141.51,0,0,1-1.51-14.77l-.18-3.71-.08-3.71c-.06-2.47,0-4.95,0-7.42q.14-7.42.81-14.81c.46-4.92,1.07-9.83,2-14.71l.23-1.23.64,1a5.39,5.39,0,0,1,.78,2.41,14.56,14.56,0,0,1,0,2.41c-.25-1.55-.54-3.2-1.52-4.23l.87-.25c0,4.94-.2,9.86-.33,14.77L379,436.51c-.08,2.45-.13,4.91-.23,7.36s-.15,4.91-.25,7.37C378.3,456.16,378.12,461.08,377.76,466Z"/><path d="M391.4,422c.55,5.88.8,11.75.94,17.63.1,2.94.09,5.88.14,8.82l0,8.82-.19,8.82c-.12,2.94-.18,5.88-.36,8.81-.29,5.87-.7,11.74-1.39,17.6-.55-5.89-.8-11.77-.95-17.65-.1-2.94-.09-5.88-.14-8.81l0-8.81.19-8.81c.12-2.94.19-5.87.36-8.81C390.31,433.75,390.7,427.87,391.4,422Z"/><path d="M399.64,487a68.23,68.23,0,0,1-1.92-11.2c-.2-1.88-.27-3.78-.37-5.67s0-3.79,0-5.68a94.26,94.26,0,0,1,1-11.31A67.76,67.76,0,0,1,400.74,442c.07,3.81,0,7.55-.14,11.29l-.29,11.19c-.07,1.86-.09,3.72-.14,5.59l-.07,2.8c0,.93,0,1.87-.06,2.8C400,479.44,399.89,483.19,399.64,487Z"/><path d="M362.36,409a11.69,11.69,0,0,1-1-3.42,17.69,17.69,0,0,1-.19-3.39,17.37,17.37,0,0,1,.45-3.36,11.55,11.55,0,0,1,1.31-3.33,11.55,11.55,0,0,1,1,3.42,17.37,17.37,0,0,1,.19,3.39,17.69,17.69,0,0,1-.46,3.36A11.69,11.69,0,0,1,362.36,409Z"/><path d="M370.08,395c.46,5.13,1,10.17,1.65,15.24.34,2.53.6,5.06.92,7.6s.52,5.09.77,7.65.35,5.13.43,7.71l0,3.88c0,1.29-.08,2.59-.14,3.88a53.57,53.57,0,0,1-2.93,15.19,114.62,114.62,0,0,0,.58-15.24c-.06-1.27-.11-2.53-.14-3.79l-.23-3.79-.26-3.8-.32-3.8-.6-7.63c-.16-2.56-.35-5.11-.42-7.68A82.67,82.67,0,0,1,370.08,395Z"/><path d="M367.25,339.52A52.36,52.36,0,0,1,365.6,332c-.38-2.53-.64-5.06-.8-7.61s-.22-5.09-.16-7.65a51.68,51.68,0,0,1,.7-7.7,51.65,51.65,0,0,1,1.66,7.55q.57,3.79.8,7.61c.16,2.54.22,5.09.16,7.65A52.36,52.36,0,0,1,367.25,339.52Z"/><path d="M359.91,337a11.66,11.66,0,0,1-1.09-3.4,17.68,17.68,0,0,1-.24-3.38,17.35,17.35,0,0,1,.4-3.36,11.53,11.53,0,0,1,1.26-3.34,11.54,11.54,0,0,1,1.09,3.4,17.37,17.37,0,0,1,.24,3.38,17.68,17.68,0,0,1-.41,3.36A11.66,11.66,0,0,1,359.91,337Z"/><path d="M353.39,217.5A16.07,16.07,0,0,1,354,223a32.77,32.77,0,0,1-.68,5.33c-.35,1.73-.79,3.42-1.26,5.09s-1,3.35-1.6,5.11a15.36,15.36,0,0,1-.74-5.46,30.77,30.77,0,0,1,.66-5.35c.36-1.74.81-3.42,1.29-5.1S352.73,219.25,353.39,217.5Z"/><path d="M379.14,329a12,12,0,0,1,.72,3,18.71,18.71,0,0,1,.12,2.8,18.17,18.17,0,0,1-.3,2.78,11.86,11.86,0,0,1-.92,2.93,7.29,7.29,0,0,1-1.43-2.82,10,10,0,0,1-.34-3,10.17,10.17,0,0,1,.55-3A7.35,7.35,0,0,1,379.14,329Z"/><path d="M479.09,412.94a83.44,83.44,0,0,0,5.18,15.76c.59,1.25,1.15,2.51,1.71,3.76l1.82,3.72,1.88,3.7,1.95,3.68,3.86,7.42c1.24,2.51,2.5,5,3.62,7.59a68.87,68.87,0,0,1,5.18,16,164.6,164.6,0,0,0-7.28-15l-4-7.29L489,445c-1.28-2.49-2.55-5-3.73-7.56l-1.67-3.89c-.53-1.31-1-2.65-1.49-4A49.73,49.73,0,0,1,479.09,412.94Z"/><path d="M422.32,292.93a188.63,188.63,0,0,0,7.06,17.61c1.33,2.86,2.68,5.71,4.11,8.52s2.83,5.64,4.32,8.44l4.38,8.44c1.42,2.84,2.9,5.65,4.27,8.52,2.8,5.7,5.51,11.45,8,17.35-3.55-5.3-6.83-10.75-10-16.24s-6.28-11-9.25-16.68a164.1,164.1,0,0,1-7.92-17.44A84.93,84.93,0,0,1,422.32,292.93Z"/><path d="M459.35,378.54c1.2,2.35,2.16,4.72,3.11,7.09s1.81,4.75,2.66,7.14,1.66,4.79,2.43,7.22,1.5,4.89,2,7.47a38.68,38.68,0,0,1-4.21-6.57,56.19,56.19,0,0,1-3.07-7.13,56.78,56.78,0,0,1-2.08-7.48A39,39,0,0,1,459.35,378.54Z"/><path d="M499.18,410.44c2.26,4.7,4.3,9.46,6.33,14.22s4,9.54,6,14.31l2.91,7.18,2.87,7.2c1.88,4.82,3.74,9.65,5.48,14.55l-.43,0L523,466l-.26,2-.08.64-.35-.6c-2.66-4.48-5.07-9.08-7.33-13.75q-1.67-3.52-3.26-7.07c-1-2.39-2.06-4.77-3-7.18-1.92-4.82-3.74-9.69-5.33-14.63S500.3,415.53,499.18,410.44Z"/><path d="M493.84,434.07c-3.34-6.14-6.35-12.42-9.21-18.77-1.46-3.17-2.8-6.38-4.18-9.58s-2.64-6.45-3.94-9.68-2.5-6.5-3.71-9.77-2.37-6.55-3.46-9.86c-2.23-6.6-4.31-13.26-6-20,2.91,6.35,5.59,12.77,8.23,19.2,1.35,3.21,2.6,6.45,3.92,9.66l3.85,9.69,3.78,9.71c1.23,3.25,2.51,6.48,3.71,9.75C489.23,420.91,491.64,427.44,493.84,434.07Z"/><path d="M435.28,298.09c2.27,4.06,4.36,8.16,6.45,12.25L448,322.61l6.22,12.28c2.07,4.1,4.15,8.21,6.07,12.44A104.07,104.07,0,0,1,452.15,336c-1.26-1.95-2.4-4-3.57-6s-2.21-4.07-3.28-6.12-2-4.16-3-6.27-1.87-4.24-2.7-6.4A104.86,104.86,0,0,1,435.28,298.09Z"/><path d="M456.84,319.36a40.85,40.85,0,0,1,3.69,5.73c1.07,2,2,4,2.91,6.06s1.65,4.16,2.31,6.31a40.29,40.29,0,0,1,1.52,6.64,40.31,40.31,0,0,1-3.69-5.73q-1.61-3-2.9-6.06c-.87-2.06-1.64-4.16-2.31-6.31A40.8,40.8,0,0,1,456.84,319.36Z"/><path d="M476.88,369.53a14,14,0,0,1,2.1,2.94,22.61,22.61,0,0,1,1.4,3.1,22.1,22.1,0,0,1,.92,3.28,13.77,13.77,0,0,1,.28,3.61,10.55,10.55,0,0,1-2.46-2.71,15.35,15.35,0,0,1-1.56-3.15,15.57,15.57,0,0,1-.82-3.41A10.66,10.66,0,0,1,476.88,369.53Z"/><path d="M482.53,359a78.08,78.08,0,0,1,5.32,9.28c1.6,3.18,3,6.43,4.32,9.74s2.46,6.66,3.45,10.08A77.36,77.36,0,0,1,498,398.5c-1.71-3.16-3.19-6.38-4.6-9.62s-2.75-6.5-4-9.78-2.52-6.58-3.67-9.93S483.42,362.47,482.53,359Z"/><path class="cls-9" d="M476.5,345v.5"/><path d="M446.49,302.5a5.51,5.51,0,0,1,1.32.8,2,2,0,0,1,.57.77,1.9,1.9,0,0,1,.08,1,5.44,5.44,0,0,1-.46,1.47,2.38,2.38,0,0,1-1.61-.35,2.08,2.08,0,0,1-.81-1,2.11,2.11,0,0,1-.06-1.3A2.39,2.39,0,0,1,446.49,302.5Z"/><path d="M455.53,306.49a5.39,5.39,0,0,1,1.56,1.21,4.78,4.78,0,0,1,.83,1.32,4.66,4.66,0,0,1,.35,1.52,5.33,5.33,0,0,1-.25,2,3.6,3.6,0,0,1-1.85-.88,3.94,3.94,0,0,1-1-1.44,4,4,0,0,1-.29-1.74A3.62,3.62,0,0,1,455.53,306.49Z"/><path d="M388.2,198.91c2.17,3.5,4.27,7,6.47,10.32,1.12,1.67,2.21,3.36,3.39,5s2.31,3.28,3.54,4.86,2.45,3.15,3.7,4.79a33.93,33.93,0,0,1,3.44,5.28,37.94,37.94,0,0,1,3.38,11.94c-1.77-3.71-3.27-7.51-5.41-10.78s-5.05-6.06-7.51-9.43a72.35,72.35,0,0,1-6.55-10.49A56.81,56.81,0,0,1,388.2,198.91Z"/><path d="M399.35,210.22a30,30,0,0,1,7.35,4.61,38.68,38.68,0,0,1,10.43,13.83,29.8,29.8,0,0,1,2.4,8.34c-1.53-2.47-2.95-4.89-4.47-7.22S412,225.16,410.3,223s-3.41-4.35-5.24-6.45S401.3,212.37,399.35,210.22Z"/><path d="M401,192a3.58,3.58,0,0,1,1.5.91,2.88,2.88,0,0,1,.68,1.16,2.82,2.82,0,0,1,.07,1.34,1.19,1.19,0,1,1-2.26.68,2.83,2.83,0,0,1-.68-1.16,2.88,2.88,0,0,1-.06-1.34A3.58,3.58,0,0,1,401,192Z"/><path class="cls-9" d="M426.53,240.49,428,245"/><path d="M421,354.4a14,14,0,0,1,3.82-.95,21.85,21.85,0,0,1,3.77-.1,21.46,21.46,0,0,1,3.73.54,13.85,13.85,0,0,1,3.68,1.4,13.85,13.85,0,0,1-3.82,1,21.46,21.46,0,0,1-3.77.09,21.85,21.85,0,0,1-3.73-.55A14,14,0,0,1,421,354.4Z"/><path d="M434,364.45a3.72,3.72,0,0,1,1.5-1,3.19,3.19,0,0,1,1.41-.17,3.13,3.13,0,0,1,1.33.47,3.69,3.69,0,0,1,1.24,1.33,3.69,3.69,0,0,1-1.51,1,3.13,3.13,0,0,1-1.41.16,3.19,3.19,0,0,1-1.33-.48A3.72,3.72,0,0,1,434,364.45Z"/><path d="M449,382.05a32.21,32.21,0,0,1-5.64,1.06c-1.87.2-3.74.3-5.6.32s-3.73-.05-5.61-.22a31.77,31.77,0,0,1-5.66-1,26.21,26.21,0,0,1,5.59-1.39,41.45,41.45,0,0,1,5.65-.42,42.08,42.08,0,0,1,5.65.33A26.5,26.5,0,0,1,449,382.05Z"/><path d="M423,373a3.7,3.7,0,0,1,1.59-1.3,4.07,4.07,0,0,1,1.74-.33,4,4,0,0,1,1.71.44,3.67,3.67,0,0,1,1.49,1.41,5.25,5.25,0,0,1-1.75.93,4.69,4.69,0,0,1-1.56.21,4.8,4.8,0,0,1-1.54-.32A5.31,5.31,0,0,1,423,373Z"/><path d="M186.2,511.24c6.73,3,13.47,5.89,20.31,8.48,1.72.62,3.44,1.23,5.15,1.88l5.18,1.77,5.21,1.68,5.25,1.54,5.27,1.46,5.31,1.32,5.34,1.23c1.79.35,3.58.73,5.37,1.12,7.18,1.41,14.42,2.53,21.73,3.51a130.62,130.62,0,0,1-22.11-1.2c-1.83-.27-3.66-.54-5.49-.84l-5.46-1-5.41-1.25-5.37-1.42-5.31-1.63L215.91,526l-5.18-2c-1.71-.71-3.41-1.44-5.11-2.18A131.11,131.11,0,0,1,186.2,511.24Z"/><path d="M103.58,480.46c4.27,2.16,8.42,4.41,12.59,6.62l6.27,3.28c1.05.52,2.09,1.09,3.13,1.63l3.15,1.59,3.15,1.6,3.17,1.56,6.35,3.12c4.25,2.06,8.52,4.08,12.78,6.25a95.63,95.63,0,0,1-13.7-4.1c-2.24-.82-4.43-1.77-6.63-2.69s-4.33-2-6.47-3.06-4.22-2.23-6.29-3.41-4.11-2.43-6.09-3.76A96.23,96.23,0,0,1,103.58,480.46Z"/><path d="M523.63,498.39a10.18,10.18,0,0,1,4.23-4.88,30.44,30.44,0,0,1,5.69-2.75c1.9-.74,3.77-1.37,5.49-2.2A12.59,12.59,0,0,0,543.7,485a8.15,8.15,0,0,1-3.38,5.55,22,22,0,0,1-5.68,3c-1.94.75-3.86,1.33-5.69,2A20.65,20.65,0,0,0,523.63,498.39Z"/><path d="M281,517a75.26,75.26,0,0,1,7.91-.2c2.61.05,5.2.17,7.79.35s5.18.39,7.77.68c1.3.14,2.59.33,3.9.51a6.12,6.12,0,0,0,1.81.13,1.42,1.42,0,0,0,1.39-.93,1.27,1.27,0,0,1-.25,1,2.63,2.63,0,0,1-.88.69,6.27,6.27,0,0,1-2.07.55c-1.31.16-2.63.31-3.95.37a64.47,64.47,0,0,1-7.91,0,65.22,65.22,0,0,1-7.84-1A43.55,43.55,0,0,1,281,517Z"/></svg>