<?xml version="1.0" encoding="utf-8"?>
<!-- Generator: Adobe Illustrator 16.0.0, SVG Export Plug-In . SVG Version: 6.00 Build 0)  -->
<!DOCTYPE svg PUBLIC "-//W3C//DTD SVG 1.1//EN" "http://www.w3.org/Graphics/SVG/1.1/DTD/svg11.dtd">
<svg version="1.1" id="Ebene_1" xmlns="http://www.w3.org/2000/svg" xmlns:xlink="http://www.w3.org/1999/xlink" x="0px" y="0px"
	 width="566.929px" height="198.425px" viewBox="0 0 566.929 198.425" enable-background="new 0 0 566.929 198.425"
	 xml:space="preserve">
<g>
	<path fill="#009352" d="M107.428,36.178c0.708-4.751,1.786-9.351,3.117-13.965c0.139-0.483,0.28-0.965,0.422-1.448
		c0.152-0.514,0.641-1.198,0.092-1.46c-1.199-0.573-2.394-1.107-3.623-1.614c-2.188-0.904-4.429-1.685-6.665-2.462
		c-8.782-3.057-18.191-3.915-27.425-3.681c-9.14,0.232-18.626,1.992-27.041,5.642c-8.57,3.717-16.518,9.279-22.16,16.808
		c-5.497,7.335-9.284,16.081-10.396,25.229c-1.114,9.168-0.852,18.631,1.324,27.634c2.258,9.347,7.1,17.395,14.329,23.728
		c6.968,6.104,15.775,9.926,24.645,12.292c8.755,2.336,18.309,3.192,27.343,2.393c4.616-0.409,9.269-1.017,13.712-2.383
		c2.287-0.703,4.573-1.411,6.762-2.386c0.545-0.242,1.092-0.479,1.635-0.728c0.422-0.194,1.38-0.432,1.665-0.786
		c0.278-0.346,0.304-1.286,0.408-1.727c0.139-0.588,0.307-1.171,0.461-1.755c0.589-2.233,1.19-4.453,1.92-6.645
		c0.356-1.07,0.722-2.126,1.13-3.176c0.237-0.608-0.307-0.619-0.845-0.908c-0.72-0.388-0.701-0.524-1.326-0.03
		c-3.706,2.932-7.578,5.687-11.859,7.716c-8.463,4.011-17.957,4.513-27.04,2.701c-4.342-0.866-8.517-3.141-12.017-5.772
		c-3.728-2.802-6.703-6.461-9.03-10.482c-4.712-8.14-6.612-17.668-6.946-26.987c-0.333-9.3,0.875-18.771,4.649-27.337
		c3.664-8.318,9.75-15.847,18.094-19.8c8.168-3.871,18.229-4.402,26.732-1.227c3.619,1.352,6.835,3.355,9.74,5.891
		c1.415,1.235,2.663,2.614,3.865,4.055c0.556,0.666,1.124,1.327,1.621,2.039c0.372,0.532,0.345,0.632,0.967,0.632
		C106.27,36.178,106.849,36.178,107.428,36.178z"/>
	<path fill="#009352" d="M129.472,69.357c-0.066,9.702-0.078,19.406-0.212,29.107c-0.116,8.373-0.864,16.718-1.589,25.056
		c8.912-1.009,17.753-1.008,26.665,0c-0.723-9.331-1.024-18.693-1.109-28.051c-0.059-6.536-0.013-13.061,0.138-19.594
		c9.233,0.696,18.572,0.263,27.468-2.487c8.665-2.679,16.702-8.603,20.067-17.266c1.652-4.252,2.437-8.572,2.542-13.137
		c0.102-4.393-0.328-9.087-2.016-13.186c-1.685-4.091-4.239-7.583-7.901-10.12c-3.833-2.654-8.194-3.94-12.694-4.942
		c-4.468-0.995-9.239-1.16-13.801-1.16c-4.711,0-9.404,0.312-14.106,0.554c-8.026,0.415-15.95,0.009-23.958-0.554
		c0.296,9.42,0.646,18.867,0.646,28.292C129.611,51.033,129.472,60.194,129.472,69.357z M153.365,67.417
		c0-8.845-0.034-17.692,0.231-26.535c0.161-5.34,0.278-10.684,0.512-16.021c0.029-0.646,0.057-1.291,0.085-1.937
		c0.006-0.14,1.225-0.143,1.435-0.152c1.168-0.05,2.331-0.089,3.5-0.089c2.327,0,4.677,0.34,6.936,0.878
		c4.266,1.017,8.014,4.094,9.648,8.178c1.75,4.367,2.155,9.004,2.015,13.678c-0.134,4.465-0.902,9.138-3.292,13.001
		c-2.439,3.942-6.083,7.054-10.674,8.093C160.362,67.28,156.832,67.329,153.365,67.417"/>
	<path fill="#009352" d="M83.491,36.547c-9.355,0.238-18.29,3.767-24.835,10.572c-6.579,6.84-9.898,16.035-9.646,25.467
		c0.242,9.056,4.706,18.396,11.605,24.267c7.243,6.164,16.278,9.309,25.808,8.551c9.142-0.727,18.148-5.395,23.845-12.634
		c2.936-3.73,5.187-7.89,6.461-12.479c1.246-4.489,1.433-9.101,0.948-13.714c-0.954-9.083-6.309-17.887-13.675-23.216
		C97.928,38.966,90.967,36.742,83.491,36.547z M116.116,69.913c-2.613,0-5.226,0-7.838,0c-0.495,0-0.345-0.155-0.363-0.67
		c-0.022-0.625-0.063-1.247-0.105-1.871c-0.075-1.101-0.23-2.21-0.43-3.294c-0.864-4.688-2.491-8.998-4.888-13.112
		c-0.125-0.215-0.251-0.431-0.377-0.647c1.138-0.481,2.239-0.999,3.326-1.587c0.198-0.106,1.151-0.782,1.228-0.698
		c0.392,0.428,0.789,0.85,1.17,1.287c1.555,1.781,2.927,3.687,4.103,5.738c2.341,4.087,3.518,8.555,4.079,13.202
		C116.086,68.805,116.084,69.365,116.116,69.913 M83.675,88.074c-1.89,0-3.772,0.069-5.653,0.278
		c-0.216,0.024-1.2,0.265-1.257,0.041c-0.153-0.598-0.307-1.195-0.46-1.792c-0.225-0.878-0.411-1.77-0.593-2.657
		c-0.828-4.038-1.189-8.111-1.279-12.228c6.177,0,12.354,0,18.532,0c-0.169,4.048-0.473,8.063-1.286,12.039
		c-0.188,0.918-0.378,1.84-0.608,2.75c-0.125,0.493-0.274,0.981-0.412,1.471c-0.188,0.673-0.271,0.501-0.976,0.422
		C87.683,88.174,85.687,88.074,83.675,88.074 M89.96,90.246c-1.558,4.686-3.667,8.998-6.378,13.125
		c-2.702-4.116-4.686-8.458-6.238-13.125C81.588,89.86,85.717,89.86,89.96,90.246 M74.433,69.913
		c0.201-4.754,0.676-9.429,1.728-14.076c0.114-0.506,0.254-1,0.397-1.498c0.271-0.947,0.133-0.987,1.109-0.878
		c1.201,0.133,2.403,0.224,3.609,0.289c2.305,0.124,4.632,0.044,6.931-0.144c0.475-0.039,2.001-0.452,2.307-0.237
		c0.34,0.238,0.499,1.691,0.604,2.153c0.359,1.584,0.719,3.167,0.975,4.77c0.508,3.196,0.756,6.388,0.825,9.622
		C86.756,69.913,80.594,69.913,74.433,69.913 M83.675,51.981c-2.106-0.058-4.186-0.178-6.285-0.369
		c1.542-4.634,3.559-8.99,6.238-13.078c2.692,4.1,4.748,8.392,6.332,13.032C87.861,51.813,85.788,51.921,83.675,51.981
		 M85.985,38.858c5.317,2.406,9.646,6.033,13.217,10.628c-1.579,0.583-3.256,1.05-4.911,1.366c-0.269,0.051-2.437,0.567-2.494,0.408
		c-0.318-0.883-0.638-1.765-0.965-2.645C89.555,45.177,87.902,41.981,85.985,38.858 M90.606,39.182
		c5.399,1.406,10.498,3.722,14.604,7.579c-1.36,0.779-2.788,1.409-4.213,2.062c-0.067,0.031-2.734-3.316-3.062-3.669
		C95.752,42.803,93.291,40.916,90.606,39.182 M81.365,38.72c-1.915,3.122-3.574,6.34-4.819,9.791
		c-0.326,0.904-0.646,1.809-0.964,2.715c-0.084,0.237-2.066-0.271-2.408-0.352c-1.774-0.422-3.511-0.91-5.257-1.434
		C71.331,44.809,76.012,40.901,81.365,38.72 M66.069,48.748c-1.436-0.657-2.821-1.37-4.207-2.126
		c2.074-1.708,4.28-3.532,6.752-4.644c2.538-1.142,5.023-2.063,7.712-2.796C72.324,41.811,68.929,44.892,66.069,48.748
		 M75.034,53.092c-1.264,4.534-2.001,9.157-2.308,13.853c-0.029,0.442-0.067,2.968-0.143,2.968c-1.068,0-2.135,0-3.203,0
		c-2.829,0-5.657,0-8.485,0c-0.016,0-0.032,0-0.047,0c0.157-4.55,0.988-9.44,2.976-13.58c0.524-1.093,1.064-2.177,1.625-3.252
		c0.222-0.424,0.498-0.825,0.747-1.234c0.181-0.297,0.362-0.595,0.543-0.893c0.057-0.093,0.726,0.232,0.842,0.276
		c2.012,0.768,4.267,1.33,6.391,1.685C74.325,52.974,74.68,53.033,75.034,53.092 M72.63,71.716
		c0.122,5.782,0.832,11.468,2.357,17.051c-2.173,0.38-4.27,0.926-6.385,1.534c-0.584,0.168-1.14,0.361-1.708,0.577
		c-0.14,0.053-0.755-1.087-0.889-1.324c-0.566-1-1.122-2.006-1.62-3.043c-1.983-4.139-3.341-8.884-3.495-13.494
		c-0.015-0.434-0.029-0.868-0.043-1.301C64.774,71.716,68.703,71.716,72.63,71.716 M75.495,90.525
		c1.433,4.294,3.227,8.284,5.5,12.199c-5.165-2.453-9.465-5.83-12.986-10.351C70.483,91.593,72.948,91.012,75.495,90.525
		 M77.622,103.186c-5.944-1.233-11.393-3.811-15.944-7.855c0.458-0.259,4.323-2.555,4.559-2.222
		c0.995,1.409,2.148,2.669,3.321,3.927C71.901,99.547,74.715,101.412,77.622,103.186 M86.264,102.632
		c1.783-2.974,3.305-6.044,4.545-9.281c0.345-0.902,0.659-1.804,0.963-2.721c0.072-0.218,1.971,0.272,2.294,0.336
		c1.679,0.336,3.328,0.772,4.951,1.314C95.798,96.738,91.277,100.384,86.264,102.632 M100.868,92.973
		c1.563,0.664,3.076,1.382,4.528,2.265c-2.291,1.908-4.667,3.701-7.348,5.037c-2.731,1.361-5.617,2.244-8.596,2.865
		C94.033,100.591,97.699,97.109,100.868,92.973 M92.317,88.767c1.25-4.481,2.04-9.079,2.333-13.725
		c0.024-0.388,0.147-3.327,0.122-3.327c0.959,0,1.919,0,2.878,0c2.813,0,5.625,0,8.437,0c0.016,0,0.032,0,0.048,0
		c-0.168,4.642-1.042,9.372-2.959,13.633c-0.486,1.08-1.062,2.129-1.594,3.187c-0.215,0.428-0.487,0.831-0.737,1.239
		c-0.181,0.297-0.363,0.595-0.544,0.891c-0.152,0.25-0.499-0.004-0.745-0.085c-2.132-0.708-4.298-1.298-6.512-1.686
		C92.802,88.852,92.56,88.81,92.317,88.767 M94.767,69.913c-0.243-5.75-0.934-11.308-2.449-16.868
		c2.229-0.387,4.436-0.829,6.585-1.548c0.218-0.073,1.365-0.55,1.433-0.451c0.359,0.528,0.705,1.046,1.02,1.603
		c0.532,0.942,1.056,1.925,1.491,2.915c1.897,4.311,3.09,8.874,3.262,13.595c0.009,0.251,0.018,0.503,0.027,0.754
		C102.345,69.913,98.556,69.913,94.767,69.913 M60.476,47.916c1.466,0.891,2.973,1.638,4.528,2.357
		c-2.494,4.1-4.255,8.344-5.259,13.04c-0.222,1.038-0.415,2.11-0.528,3.165c-0.064,0.602-0.112,1.202-0.153,1.805
		c-0.023,0.328,0.12,1.471-0.066,1.63c-0.124,0.105-0.806,0-0.96,0c-0.818,0-1.637,0-2.456,0c-1.486,0-2.972,0-4.458,0
		c-0.086,0-0.173,0-0.26,0C51.342,61.57,54.536,53.855,60.476,47.916 M50.863,71.716c2.625,0,5.25,0,7.875,0
		c0.467,0,0.275,0.447,0.29,0.868c0.021,0.607,0.066,1.212,0.106,1.82c0.073,1.101,0.294,2.233,0.488,3.32
		c0.809,4.53,2.48,8.806,4.829,12.754c0.211,0.356,0.431,0.708,0.646,1.062c-1.049,0.468-2.07,0.964-3.072,1.526
		c-0.495,0.277-0.989,0.554-1.483,0.83c-0.479,0.268-0.913-0.583-1.243-0.943c-1.538-1.676-2.862-3.492-4.014-5.457
		c-2.339-3.989-3.892-8.532-4.288-13.153C50.921,73.466,50.889,72.596,50.863,71.716 M106.782,93.896
		c-1.594-0.89-3.172-1.727-4.853-2.449c2.589-3.978,4.291-8.358,5.287-12.989c0.477-2.222,0.688-4.436,0.767-6.706
		c0.003-0.116,7.054-0.038,7.783-0.038c0.117,0,0.233,0,0.35,0C115.886,80.104,112.572,87.849,106.782,93.896"/>
	<path fill="#005EAA" d="M238.72,93.575c0,9.673,0.818,19.312,1.334,28.966c0.002,0.034,0.004,0.068,0.005,0.103
		c-4.108-0.49-8.298-0.44-12.43-0.417c-4.119,0.023-8.45-0.125-12.523,0.555c0.875-9.486,1.522-18.991,1.847-28.514
		c0.326-9.534,0.416-19.067,0.416-28.605c0-9.413-0.212-18.818-0.611-28.222c-0.308-7.262-0.875-14.508-1.652-21.735
		c4.149,0.491,8.443,0.37,12.616,0.37c4.174,0,8.467,0.12,12.616-0.37c-0.318,4.907-0.621,9.815-0.966,14.72
		c-0.319,4.537-0.913,9.086-1.025,13.634c-0.175,7.062-0.278,14.124-0.413,21.186c6.611-6.71,13.252-13.391,19.745-20.218
		c6.742-7.09,13.424-14.229,20.058-21.421c1.206-1.306,2.428-2.596,3.621-3.912c0.789-0.868,1.576-1.736,2.364-2.604
		c0.382-0.42,0.763-0.84,1.145-1.261c0.254-0.279,0.867-0.063,1.217-0.035c3.889,0.313,7.768,0.199,11.652-0.089
		c-6.589,6.71-13.328,13.279-19.855,20.048c-6.71,6.958-13.508,13.833-20.139,20.866c-0.486,0.516-0.973,1.031-1.459,1.547
		c-0.261,0.277,0.191,0.571,0.395,0.834c0.756,0.97,1.497,1.955,2.27,2.911c1.566,1.939,3.131,3.879,4.683,5.83
		c2.894,3.641,5.813,7.263,8.75,10.869c6.077,7.457,12.125,14.936,18.206,22.39c5.931,7.269,11.863,14.537,17.823,21.783
		c-4.688-0.312-9.454-0.327-14.153-0.279c-4.862,0.049-9.724,0.041-14.585,0.138c-0.335,0.007-0.881-0.895-1.09-1.136
		c-0.313-0.359-0.626-0.718-0.938-1.078c-0.769-0.886-1.534-1.774-2.313-2.651c-1.673-1.883-3.366-3.747-5.045-5.624
		c-3.314-3.705-6.656-7.384-9.971-11.088c-6.238-6.968-12.528-13.908-18.882-20.77c-1.085-1.171-2.162-2.345-3.218-3.542
		C238.382,82.36,238.551,87.967,238.72,93.575z M376.344,14.318c1.667,9.269,2.108,18.733,2.505,28.128
		c0.41,9.698,0.567,19.429,0.472,29.135c-0.092,9.32-0.07,18.719-4.128,27.336c-4.021,8.542-12.171,14.004-21.1,16.48
		c-4.402,1.221-9.108,1.85-13.634,0.915c-4.528-0.936-8.64-2.688-12.292-5.547c-3.53-2.762-6.425-6.462-8.25-10.559
		c-0.945-2.125-1.576-4.353-2.032-6.632c-0.105-0.523-0.697-6.285-0.443-6.285c10.713,0,21.426,0,32.138,0c5.11,0,10.221,0,15.331,0
		c0.376,0,0.752,0,1.128,0c0.188,0,0.143-2.359,0.153-2.63c0.096-2.363-0.082-4.674-0.474-7.005
		c-1.557-9.274-8.155-17.212-16.241-21.633c-8.02-4.386-18.213-4.667-26.88-2.238c-9.081,2.545-16.577,8.552-20.612,17.135
		c-3.955,8.414-4.671,18.728-2.321,27.689c2.344,8.939,8.629,15.979,16.921,19.889c8.545,4.029,18.388,5.134,27.738,4.477
		c9.26-0.651,18.328-3.493,25.668-9.286c3.009-2.375,5.79-5.003,8.387-7.821c-0.4,5.788-0.863,11.594-2.033,17.284
		c4.435-0.439,8.935-0.323,13.387-0.323c4.454,0,8.926,0.027,13.37,0.323c-1.817-9.313-2.064-18.995-2.413-28.455
		c-0.342-9.293-0.489-18.595-0.438-27.893c0.056-9.83,0.229-19.655,0.72-29.473c0.383-7.684,0.754-15.431,2.132-23.012
		c-4.499,0.43-9.062,0.32-13.577,0.37C385.171,14.736,380.673,14.8,376.344,14.318 M317.561,82.391
		c0.302-4.504,0.933-9.207,2.557-13.444c1.519-3.968,3.932-8.529,8.224-10.053c2.032-0.721,4.338-1.253,6.512-0.847
		c2.282,0.426,4.076,1.269,5.907,2.681c3.377,2.602,5.202,7.52,5.784,11.601c0.322,2.263,0.554,4.535,0.5,6.826
		c-0.006,0.264-0.122,3.236-0.14,3.236c-0.442,0-0.887,0-1.33,0c-6.227,0-12.451,0-18.678,0
		C323.784,82.391,320.673,82.391,317.561,82.391 M484.065,106.837c-3.129,3.223-6.49,6.54-10.384,8.843
		c-4.06,2.403-8.517,4.161-13.042,5.455c-4.433,1.268-9.098,1.876-13.706,1.876c-4.556,0-9.226-0.274-13.641-1.488
		c-4.609-1.268-8.909-3.041-12.949-5.613c-3.979-2.533-7.108-5.971-9.699-9.863c-5.12-7.693-5.41-17.416-3.729-26.21
		c1.653-8.647,6.845-16.573,14.373-21.208c8.052-4.958,17.46-6.555,26.799-6.555c8.594,0,17.809,3.885,23.64,10.261
		c0.146,0.159,0.92,0.907,0.925,1.108c0.004,0.113-0.246,0.384-0.305,0.473c-0.62,0.964-1.24,1.929-1.86,2.892
		c-1.111,1.728-2.224,3.457-3.335,5.185c-1.848-4.104-4.458-7.93-8.201-10.514c-3.526-2.434-8.161-3.729-12.451-3.395
		c-4.65,0.363-9.158,2.041-12.506,5.383c-3.223,3.218-5.398,7.349-6.573,11.736c-2.346,8.763-2.392,19.036,1.744,27.29
		c2.135,4.258,5.253,7.596,9.164,10.265c3.778,2.579,8.377,3.561,12.867,3.732c4.483,0.171,9.177-1.047,13.332-2.633
		c4.271-1.631,8.595-3.936,11.85-7.188c1.688-1.685,3.099-3.549,4.365-5.564c0.246-0.392-0.839-2.642-1.011-3.157
		c-0.338-1.016-0.582-2.123-0.795-3.172c-0.931-4.582-0.732-9.212,0.087-13.787c1.681-9.39,7.436-17.252,15.194-22.583
		c7.63-5.243,17.097-6.473,26.102-6.077c8.967,0.395,18.462,4.367,24.823,10.729c6.44,6.44,10.784,15.211,10.784,24.467
		c0,4.626-0.723,9.23-2.651,13.471c-2.021,4.443-4.767,8.167-8.277,11.548c-6.492,6.254-16.094,9.996-25.053,10.383
		c-4.591,0.198-9.267,0.049-13.73-1.154c-4.549-1.226-8.613-2.98-12.617-5.461C489.794,113.955,486.608,110.476,484.065,106.837
		 M535.363,88.398c0-8.755-1.103-19.054-6.976-26.018c-2.939-3.484-7.14-5.733-11.775-5.539c-4.715,0.197-8.737,2.291-11.565,6.094
		c-5.529,7.434-6.285,17.665-6.285,26.603c0,8.834,1.988,19.061,8.902,25.166c3.502,3.093,8.259,4.052,12.773,3.232
		c4.619-0.839,8.275-4.103,10.479-8.14C534.489,103.256,535.163,95.71,535.363,88.398"/>
	<path d="M27.342,175.509c-0.604,0.132-0.986,2.107-1.176,2.612c-0.387,1.023-0.935,2.112-1.042,3.212
		c-0.04,0.409-0.086,0.721,0.278,0.993c0.454,0.339,1.067-0.025,1.478,0.207c0.955,0.543-1.489,0.481-1.743,0.467
		c-1.007-0.061-2.027-0.041-3.033,0.006c-0.345,0.015-2.908,0.275-2.433-0.426c0.142-0.209,1.008-0.047,1.228-0.113
		c0.577-0.173,1.03-0.352,1.452-0.81c0.509-0.555,0.744-1.305,1.018-1.988c2.153-5.375,4.305-10.752,6.458-16.126
		c0.232-0.582,0.988-3.464,1.86-2.73c0.333,0.279,0.497,1.051,0.655,1.437c0.241,0.588,0.482,1.177,0.724,1.765
		c0.386,0.941,0.761,1.886,1.135,2.832c0.918,2.318,1.839,4.636,2.779,6.943c0.856,2.104,1.582,4.315,2.608,6.342
		c0.411,0.811,1.07,2.051,2.058,2.242c0.343,0.066,2.307,0.11,1.409,0.622c-0.374,0.213-1.226,0.047-1.651,0.047
		c-0.555,0-1.11,0-1.666,0c-1.142,0-2.398,0.115-3.524-0.094c-1.167-0.215,0.405-0.407,0.11-1.185
		c-0.663-1.752-1.326-3.502-1.989-5.253c-0.074-0.194-0.206-0.868-0.432-0.979c-0.347-0.171-1.066-0.023-1.437-0.023
		C30.758,175.509,29.05,175.509,27.342,175.509z M33.211,174.076c0.423-0.185-1.485-4.647-1.69-5.212
		c-0.26-0.717-0.596-1.44-0.783-2.181c-0.116-0.458-0.713,1.209-0.755,1.319c-0.469,1.269-0.938,2.534-1.407,3.802
		c-0.119,0.32-0.935,1.824-0.82,2.134c0.141,0.381,1.93,0.138,2.262,0.138C31.083,174.076,32.146,174.076,33.211,174.076"/>
	<path d="M75.588,170.426c0.453-0.383,0.139-2.502,0.139-3.052c0-1.059,0.064-2.14-0.004-3.194
		c-0.065-1.029-0.091-2.086-1.292-2.351c-0.464-0.103-0.953,0.034-1.408-0.113c-0.564-0.183,0.146-0.458,0.392-0.487
		c1.091-0.126,2.321,0.07,3.42,0.094c1.138,0.025,2.283-0.02,3.42-0.047c0.462-0.011,1.041-0.149,1.478,0.07
		c0.509,0.258-0.601,0.438-0.689,0.438c-1.21,0-1.556,0.667-1.624,1.767c-0.293,4.723-0.184,9.561-0.055,14.289
		c0.03,1.079-0.053,2.249,0.151,3.308c0.236,1.228,1.182,1.386,2.313,1.386c0.228,0,0.882-0.05,0.692,0.37
		c-0.139,0.308-1.428,0.139-1.643,0.139c-1.109,0-2.232-0.023-3.338-0.089c-1.084-0.064-2.209,0.089-3.298,0.089
		c-0.33,0-0.965,0.128-0.965-0.321c0-0.292,1.037-0.237,1.248-0.279c1.772-0.36,1.202-4.524,1.202-5.896c0-1.249,0-2.5,0-3.751
		c0-0.998-0.185-0.797-1.125-0.797c-3.106,0-6.214,0-9.32,0c-1.048,0-0.877,0.087-0.877,1.199c0,1.136,0,2.274,0,3.41
		c0,1.168-0.022,2.342,0.075,3.506c0.1,1.199,0.105,2.142,1.496,2.329c0.429,0.058,1.01-0.02,1.41,0.115
		c0.59,0.198-0.184,0.458-0.393,0.485c-1.137,0.151-2.385-0.047-3.532-0.047c-1.1,0-2.194-0.017-3.295,0.032
		c-0.421,0.02-1.163,0.181-1.538,0.015c-0.318-0.141-0.489-0.509,0.023-0.509c1.325,0,1.754-0.36,1.955-1.646
		c0.177-1.134,0.139-2.314,0.171-3.459c0.069-2.515,0.023-5.035,0.023-7.553c0-2.154-0.094-4.311-0.094-6.463
		c0-1.181-0.865-1.629-1.938-1.629c-0.331,0-0.881,0.068-0.881-0.345c0-0.333,1.409-0.177,1.577-0.171
		c2.195,0.09,4.412,0.081,6.605-0.029c0.225-0.013,0.968,0,0.739,0.406c-0.151,0.269-1.041,0.128-1.294,0.184
		c-1.14,0.252-1.08,1.458-1.11,2.404c-0.021,0.665-0.122,6.192,0.145,6.192c2.746,0,5.493,0,8.24,0
		C73.722,170.426,74.655,170.426,75.588,170.426z"/>
	<path d="M90.423,169.595c0-1.17,0-2.342,0-3.512c0-1.034,0.156-2.24-0.138-3.235c-0.145-0.488-0.407-0.801-0.917-0.948
		c-0.466-0.137-1.122,0.045-1.535-0.162c-1.07-0.532,1.39-0.462,1.707-0.462c1.172,0,2.343,0.076,3.516,0.047
		c0.597-0.016,1.188-0.047,1.786-0.047c0.377,0,1.23-0.224,1.542,0.047c0.317,0.276,0.075,0.373-0.277,0.462
		c-0.515,0.135-1.091-0.065-1.525,0.369c-0.659,0.66-0.404,2.261-0.416,3.097c-0.034,2.474-0.045,4.946-0.045,7.422
		c0,2.185,0.114,4.292,0.887,6.347c0.706,1.876,3.153,3.075,5.061,2.907c2.297-0.203,4.298-1.215,5.072-3.527
		c0.686-2.05,0.486-4.341,0.486-6.468c0-2.432,0-4.865,0-7.297c0-0.955,0.075-2.188-0.899-2.675
		c-0.463-0.229-0.935-0.079-1.413-0.175c-0.275-0.053-0.825-0.368-0.253-0.485c1.048-0.213,2.28-0.009,3.351,0.023
		c1.133,0.034,2.29-0.025,3.422-0.083c0.181-0.011,0.986,0.011,0.783,0.406c-0.139,0.273-1.164,0.124-1.412,0.209
		c-1.044,0.354-1.036,1.478-1.036,2.437c0,2.423,0,4.846,0,7.271c0,4.297-0.292,8.989-4.692,11.065
		c-3.255,1.536-8.115,1.157-10.744-1.433C89.817,178.322,90.423,173.306,90.423,169.595z"/>
	<path d="M119.121,169.595c0-1.17,0-2.342,0-3.512c0-1.025,0.163-2.24-0.139-3.235c-0.141-0.465-0.436-0.81-0.916-0.948
		c-0.448-0.13-1.203,0.064-1.58-0.162c-0.951-0.571,1.539-0.462,1.891-0.462c2.252,0,4.603-0.18,6.842,0
		c2.178,0.177,4.478,1.004,5.085,3.328c0.646,2.481-0.967,4.582-2.82,6.008c2.155,0.872,3.886,2.059,4.875,4.229
		c0.855,1.877,0.268,4.395-1.082,5.895c-3.2,3.553-8.669,2.105-12.88,2.3c-0.243,0.01-1.727,0.17-1.727-0.198
		c0-0.478,1.042-0.353,1.407-0.427c1.229-0.247,0.997-2.672,1.027-3.621C119.203,175.73,119.121,172.655,119.121,169.595z
		 M122.587,170.103c0.019,0.641,1.713,0.406,2.15,0.377c1.002-0.075,1.716-0.508,2.192-1.394c0.852-1.584,0.593-4-0.574-5.368
		c-0.66-0.776-1.326-1.164-2.336-1.262c-0.795-0.077-1.432-0.158-1.432,0.737C122.587,165.497,122.587,167.801,122.587,170.103
		 M126.423,172.412c-0.951-0.597-1.886-0.656-2.982-0.733c-1.089-0.074-0.853,0.358-0.853,1.296c0,1.618,0,3.237,0,4.857
		c0,0.916-0.063,1.862,0.16,2.757c0.452,1.808,4.209,1.499,5.26,0.452c1.548-1.541,1.393-3.91,0.634-5.854
		C128.204,174.07,127.387,173.111,126.423,172.412"/>
	<path d="M142.413,169.595c0-1.17,0-2.342,0-3.512c0-0.991,0.167-2.282-0.139-3.235c-0.419-1.304-1.588-0.816-2.566-1.132
		c-0.431-0.141-0.076-0.413,0.199-0.451c0.577-0.085,1.177,0.011,1.762,0.011c2.215,0,4.431,0.047,6.647,0.047
		c1.095,0,2.26,0.112,3.345-0.023c0.275-0.034,1.321-0.395,1.52-0.301c0.333,0.16,0.108,0.588,0.085,0.874
		c-0.046,0.556-0.146,1.112-0.179,1.668c-0.024,0.401,0.127,1.288-0.138,1.618c-0.621,0.775-0.569-1.119-0.74-1.433
		c-0.463-0.85-1.845-0.848-2.677-0.88c-0.582-0.021-1.162-0.045-1.745-0.045c-0.296,0-1.424-0.179-1.633,0
		c-0.431,0.369-0.139,2.051-0.139,2.563c0,1.548,0,3.095,0,4.642c0,0.955,0.596,0.65,1.419,0.65c1.162,0,2.347,0.066,3.505-0.051
		c0.486-0.05,0.918-0.124,1.314-0.409c0.059-0.043,0.647-0.723,0.647-0.207c0,0.993-0.23,2.046-0.308,3.045
		c-0.034,0.436-0.063,0.885-0.063,1.319c0,0.339-0.388,0.348-0.484,0.07c-0.345-0.995-0.052-1.99-1.46-2.161
		c-1.146-0.138-2.313-0.128-3.466-0.128c-0.158,0-1.059-0.104-1.059,0.094c0,0.561-0.047,1.16-0.047,1.733c0,1.116,0,2.233,0,3.35
		c0,1.087-0.177,2.37,0.324,3.374c0.461,0.923,1.891,0.878,2.76,0.878c1.031,0,2.029-0.011,3.025-0.299
		c0.45-0.13,0.716-0.467,0.964-0.835c0.294-0.441,0.172-1.155,0.459-1.545c0.635-0.861,0.459,1.061,0.427,1.379
		c-0.067,0.673-0.005,2.614-0.856,2.802c-1.143,0.252-2.49,0.07-3.657,0.03c-2.2-0.077-4.395-0.101-6.593-0.101
		c-0.768,0-1.532,0.047-2.3,0.047c-0.643,0-0.859-0.352-0.191-0.509c0.679-0.16,1.235,0.047,1.618-0.646
		c0.336-0.604,0.37-1.538,0.37-2.212C142.367,176.316,142.413,172.956,142.413,169.595z"/>
	<path d="M163.532,169.595c0-1.17,0.009-2.342-0.023-3.512c-0.029-1.036,0.133-2.237-0.162-3.235
		c-0.144-0.488-0.406-0.801-0.916-0.948c-0.461-0.134-1.128,0.047-1.534-0.162c-1.044-0.534,1.38-0.462,1.699-0.462
		c2.272,0,4.65-0.184,6.911-0.03c2.005,0.137,4.959,0.234,6.083,2.282c1.083,1.976,1.277,4.056,0.094,6.067
		c-0.556,0.944-1.218,1.761-2.032,2.493c-0.32,0.286-1.051,0.623-0.756,1.006c0.396,0.517,0.793,1.03,1.195,1.539
		c1.386,1.754,2.791,3.486,4.264,5.168c0.785,0.897,1.596,1.615,2.619,2.227c0.362,0.218,2.375,0.433,2.383,0.738
		c0.018,0.694-5.394,0.193-6.101-0.139c-1.995-0.936-3.399-3.133-4.63-4.883c-0.667-0.948-1.325-1.903-1.999-2.847
		c-0.722-1.013-1.222-0.825-2.45-0.847c-0.286-0.004-1.007-0.168-1.226,0.073c-0.218,0.24-0.046,1.425-0.046,1.702
		c0,1.195,0.043,2.387,0.082,3.58c0.025,0.784-0.155,2.52,0.773,2.896c0.34,0.139,2.424,0.081,2.149,0.601
		c-0.25,0.476-2.716,0.092-3.199,0.092c-1.114,0-2.219-0.04-3.333,0.011c-0.57,0.025-1.219,0.113-1.786,0.036
		c-0.175-0.023-0.942-0.3-0.394-0.485c1.086-0.364,1.862,0.119,2.089-1.343c0.337-2.174,0.245-4.448,0.245-6.641
		C163.532,172.913,163.532,171.255,163.532,169.595z M166.905,171.905c-0.146,0.897,1.988,0.786,2.504,0.786
		c1.209,0,2.069-0.279,2.764-1.317c1.181-1.765,1.255-4.366,0.392-6.284c-0.893-1.984-3.227-2.819-5.269-2.404
		c-0.669,0.137-0.392,1.431-0.392,1.936c0,1.689,0,3.382,0,5.072C166.905,170.431,166.905,171.168,166.905,171.905"/>
	<path d="M200.132,180.314c-3.214-2.915-4.5-7.874-3.003-11.992c1.526-4.2,5.21-7.066,9.73-7.373
		c2.259-0.153,4.51-0.137,6.745,0.258c0.529,0.092,1.056,0.191,1.582,0.298c0.382,0.077,1.084-0.006,1.307,0.324
		c0.191,0.283-0.041,0.974-0.063,1.292c-0.042,0.594-0.075,1.187-0.075,1.783c0,0.403,0.212,2.436-0.417,2.425
		c-0.288-0.004-0.549-1.994-0.738-2.356c-1.022-1.952-3.556-2.583-5.6-2.681c-2.256-0.109-4.586,0.185-6.324,1.758
		c-1.612,1.46-2.379,3.598-2.571,5.729c-0.394,4.358,1.051,8.876,5.159,10.999c1.95,1.008,4.255,1.255,6.404,0.817
		c1.054-0.213,1.96-0.624,2.7-1.417c0.38-0.407,0.614-0.896,0.842-1.399c0.108-0.237,0.109-1.157,0.545-1.096
		c0.565,0.081,0.021,2.253-0.051,2.625c-0.104,0.542-0.195,1.103-0.367,1.624c-0.209,0.64-0.527,0.75-1.129,0.989
		c-2.015,0.797-4.824,0.624-6.935,0.422C205.005,183.07,202.372,182.155,200.132,180.314z"/>
	<path d="M222.5,172.135c0.229-4.611,2.524-8.727,6.978-10.442c4.175-1.606,8.838-0.916,12.591,1.343
		c1.72,1.036,3.084,3.308,3.561,5.213c0.529,2.116,0.541,4.205,0.117,6.338c-0.859,4.319-4.413,7.585-8.623,8.552
		c-3.23,0.744-7.177,0.312-9.936-1.626C224.057,179.314,222.675,175.852,222.5,172.135z M242.002,172.691
		c0-4.656-2.165-9.234-7.01-10.327c-2.072-0.469-4.459,0.1-6.028,1.523c-1.62,1.471-2.149,3.621-2.4,5.712
		c-0.536,4.469,0.962,9.038,4.855,11.479c1.565,0.982,4.31,1.305,6.018,0.589c2.101-0.881,3.476-2.554,4.08-4.748
		C241.896,175.539,242.002,174.119,242.002,172.691"/>
	<path d="M256.189,161.369c0.412-1.712,1.265,0.175,1.604,0.869c0.87,1.792,1.74,3.582,2.609,5.373
		c1.646,3.388,3.292,6.776,4.938,10.163c2.316-4.881,4.632-9.759,6.949-14.639c0.287-0.604,0.573-1.206,0.859-1.81
		c0.464-0.979,1.016-0.784,1.159,0.186c0.323,2.188,0.646,4.377,0.969,6.565c0.476,3.219,0.951,6.437,1.426,9.654
		c0.179,1.211,0.156,3.89,1.431,4.424c0.374,0.156,2.531,0.35,2.457,0.657c-0.123,0.513-2.644,0.206-3.069,0.195
		c-1.152-0.031-2.298-0.065-3.449-0.146c-0.318-0.023-0.974,0.021-0.877-0.418c0.038-0.168,0.382-0.317,0.463-0.557
		c0.175-0.518-0.137-1.556-0.209-2.09c-0.197-1.465-0.395-2.929-0.591-4.393c-0.319-2.367-0.637-4.735-0.956-7.101
		c-0.399,0.168-0.733,1.332-0.926,1.73c-0.699,1.449-1.397,2.896-2.096,4.343c-1.128,2.338-2.256,4.676-3.385,7.014
		c-0.238,0.494-0.602,1.831-1.264,1.513c-0.359-0.17-0.603-0.943-0.757-1.276c-0.238-0.514-0.552-0.993-0.814-1.496
		c-1.061-2.028-2.077-4.089-3.054-6.161c-0.544-1.152-1.076-2.31-1.603-3.472c-0.134-0.294-0.96-2.389-1.059-1.623
		c-0.384,2.971-0.767,5.941-1.15,8.912c-0.106,0.827-0.257,1.658-0.308,2.489c-0.065,1.046-0.275,1.978,1.041,2.152
		c0.398,0.053,0.971-0.007,1.327,0.175c0.315,0.162-0.267,0.438-0.406,0.438c-1.05,0-2.12,0.011-3.166-0.085
		c-0.877-0.081-2.321,0.438-3.129,0.085c-1.099-0.479,1.133-0.561,1.354-0.739c1.035-0.835,1.038-3.563,1.224-4.786
		C254.549,172.135,255.37,166.752,256.189,161.369z"/>
	<path d="M288.076,169.595c0-1.17,0-2.342,0-3.512c0-1.002,0.155-2.27-0.138-3.235c-0.142-0.465-0.438-0.81-0.917-0.948
		c-0.447-0.13-1.198,0.064-1.58-0.162c-0.384-0.226-0.281-0.311,0.093-0.462c0.505-0.203,1.254,0,1.799,0
		c2.262,0,4.538-0.075,6.798-0.047c2.265,0.029,4.195,0.534,5.797,2.147c1.582,1.597,1.063,4.506,0.239,6.296
		c-0.986,2.148-3.197,3.18-5.384,3.584c-0.296,0.054-2.26,0.224-1.808-0.428c0.154-0.222,1.073-0.164,1.339-0.23
		c0.535-0.132,0.939-0.39,1.379-0.705c1.861-1.341,2.119-3.8,1.64-5.887c-0.432-1.882-2.425-3.667-4.424-3.522
		c-0.978,0.07-1.273,0.126-1.273,1.091c0,1.355,0,2.711,0,4.064c0,2.472,0,4.944,0,7.414c0,1.166-0.028,2.336,0.009,3.501
		c0.03,0.991-0.154,2.601,0.475,3.425c0.496,0.652,2.44,0.203,2.657,0.695c0.255,0.577-2.246,0.355-2.647,0.341
		c-1.127-0.041-2.247-0.02-3.372-0.02c-0.502,0-2.973,0.371-3.152-0.159c-0.127-0.376,0.649-0.318,0.828-0.331
		c0.538-0.04,0.89-0.106,1.205-0.526c0.586-0.782,0.399-2.459,0.43-3.386c0.076-2.397,0.009-4.811,0.009-7.208
		C288.076,170.788,288.076,170.191,288.076,169.595z"/>
	<path d="M311.553,175.509c-0.609,0.238-0.987,2.233-1.206,2.811c-0.34,0.901-1.013,2.112-1.013,3.099
		c0,1.364,0.971,0.831,1.871,1.139c0.378,0.13,0.008,0.485-0.253,0.485c-0.543,0-1.076-0.029-1.618-0.047
		c-1.104-0.032-2.2-0.025-3.303,0.023c-0.532,0.023-1.117,0.092-1.643,0.023c-0.171-0.021-0.924-0.307-0.393-0.485
		c0.955-0.32,2.017,0.06,2.671-0.995c0.401-0.646,0.72-1.298,1.002-2.004c2.171-5.419,4.342-10.839,6.513-16.258
		c0.245-0.611,1.033-3.596,1.897-2.28c0.603,0.918,0.932,2.239,1.349,3.252c0.385,0.939,0.757,1.886,1.131,2.83
		c0.933,2.354,1.875,4.708,2.827,7.054c0.827,2.037,1.521,4.214,2.556,6.157c0.497,0.934,1.128,1.952,2.257,2.116
		c0.233,0.034,1.166-0.025,1.3,0.151c0.312,0.415-0.327,0.438-0.603,0.462c-1.105,0.094-2.26,0-3.37,0c-1.043,0-2.406,0.2-3.4-0.115
		c-0.612-0.195,0.399-0.5,0.486-0.671c0.13-0.254-0.059-0.569-0.15-0.812c-0.656-1.73-1.312-3.461-1.968-5.194
		c-0.12-0.315-0.167-0.611-0.471-0.741c-0.4-0.171-1.249,0-1.677,0C314.748,175.509,313.15,175.509,311.553,175.509z
		 M317.468,174.076c0.422-0.185-1.485-4.647-1.691-5.212c-0.26-0.717-0.599-1.44-0.782-2.181c-0.117-0.478-0.714,1.191-0.762,1.319
		c-0.477,1.269-0.954,2.534-1.433,3.802c-0.138,0.364-0.953,1.801-0.763,2.181c0.152,0.305,1.897,0.091,2.238,0.091
		C315.339,174.076,316.403,174.076,317.468,174.076"/>
	<path d="M335.122,179.114c0,0.857-0.046,2.293,0.6,2.956c0.377,0.388,0.924,0.39,1.429,0.452c0.119,0.015,1.129-0.064,0.952,0.29
		c-0.297,0.59-2.416,0.183-2.992,0.183c-1.107,0-2.208,0.047-3.317,0.047c-0.425,0-1.127,0.137-1.524-0.07
		c-0.469-0.243,0.154-0.4,0.324-0.438c0.499-0.109,1.087,0.038,1.525-0.277c0.412-0.296,0.488-0.814,0.553-1.294
		c0.241-1.76,0.117-3.652,0.146-5.426c0.055-3.396,0.11-6.792,0.166-10.187c0.007-0.469-0.272-4.618,0.52-4.582
		c0.611,0.03,1.531,1.514,1.922,1.923c0.771,0.808,1.544,1.615,2.319,2.419c1.662,1.722,3.319,3.447,5.009,5.14
		c1.246,1.247,2.467,2.517,3.685,3.791c0.589,0.616,1.184,1.228,1.779,1.84c0.387,0.396,1.194,1.562,1.692,1.617
		c-0.055-2.553-0.109-5.108-0.165-7.663c-0.047-2.15,0.2-4.571-0.272-6.692c-0.115-0.514-0.283-0.876-0.74-1.148
		c-0.526-0.315-1.099-0.063-1.642-0.209c-0.116-0.029-0.731-0.256-0.369-0.438c0.437-0.22,1.111-0.099,1.581-0.077
		c0.622,0.025,6.044-0.136,6.044,0.192c0,0.415-0.643,0.296-0.924,0.323c-0.538,0.054-0.955,0.203-1.213,0.717
		c-0.313,0.617-0.306,1.406-0.316,2.092c-0.04,2.686-0.082,5.369-0.123,8.052c-0.045,3.009-0.091,6.019-0.137,9.027
		c-0.007,0.407,0.111,1.473-0.29,1.671c-0.62,0.307-1.847-1.313-2.235-1.703c-2.457-2.459-4.919-4.918-7.378-7.378
		c-1.164-1.163-2.336-2.327-3.446-3.542c-0.618-0.677-1.223-1.372-1.853-2.039c-0.383-0.405-1.143-1.516-1.634-1.675
		C334.905,171.042,335.013,175.078,335.122,179.114z"/>
	<path d="M366.916,175.601c0-2.282-1.238-4.19-2.439-6.057c-1.256-1.952-2.341-4.045-3.735-5.901
		c-0.636-0.844-1.388-1.491-2.395-1.833c-0.17-0.057-0.825,0.032-0.812-0.302c0.016-0.416,1.001-0.239,1.2-0.232
		c1.155,0.042,2.315,0.047,3.472,0.047c0.626,0,2.492-0.414,2.953,0.047c0.306,0.305-0.456,0.435-0.647,0.485
		c-0.487,0.128-0.28,0.8-0.128,1.106c0.507,1.029,1.079,2.014,1.619,3.023c1.082,2.025,2.304,3.983,3.454,5.968
		c0.935-2.067,2.209-4.002,3.284-6.001c0.477-0.887,1.087-1.795,1.336-2.781c0.1-0.393,0.237-0.936-0.16-1.2
		c-0.172-0.115-0.849-0.228-0.856-0.462c-0.012-0.389,5.184-0.198,5.866-0.248c0.159-0.013,1.023-0.087,0.903,0.271
		c-0.104,0.317-0.893,0.3-1.181,0.37c-1.113,0.271-1.749,1.103-2.423,1.963c-1.42,1.813-2.515,3.944-3.678,5.929
		c-0.603,1.027-1.247,2.055-1.67,3.171c-0.348,0.917-0.359,1.991-0.359,2.967c0,1.202,0.046,2.401,0.046,3.6
		c0,0.916-0.109,2.403,0.925,2.819c0.323,0.13,2.481,0.038,2.173,0.554c-0.283,0.474-2.63,0.101-3.144,0.092
		c-1.278-0.021-2.555-0.042-3.834,0.015c-0.625,0.03-1.352,0.135-1.966,0.009c-0.772-0.157,0.235-0.488,0.484-0.507
		c1.608-0.13,1.589-1.253,1.667-2.628C366.953,178.46,366.916,177.028,366.916,175.601z"/>
</g>
</svg>
