<?xml version="1.0" encoding="UTF-8"?>
<svg width="140px" height="140px" viewBox="0 0 140 140" version="1.1" xmlns="http://www.w3.org/2000/svg" xmlns:xlink="http://www.w3.org/1999/xlink">
    <!-- Generator: Sketch 52 (66869) - http://www.bohemiancoding.com/sketch -->
    <title>logo copy</title>
    <desc>Created with Sketch.</desc>
    <g id="test" stroke="none" stroke-width="1" fill="none" fill-rule="evenodd">
        <g id="scroll-body" transform="translate(-250.000000, -687.000000)" fill="#FF6663">
            <g id="intro" transform="translate(250.000000, 0.000000)">
                <g id="logo-copy" transform="translate(0.000000, 687.000000)">
                    <path d="M61.3483146,30.646354 L61.3483146,39.2495987 C63.6762923,38.9388902 66.216588,38.7557326 68.9966815,38.7557326 C71.9514892,38.7557326 74.6343909,38.9686998 77.0786517,39.3258427 L77.0786517,30.5417335 C74.9945216,30.1407361 72.5236487,29.8876404 69.5859075,29.8876404 C66.3126228,29.8876404 63.5970346,30.1854506 61.3483146,30.646354 Z M78.6516854,53.6332748 C82.0665322,53.9677637 85.2425371,54.4511937 88.0898876,55.0561798 L88.0898876,44.6856283 C85.2425371,43.7444767 82.0665322,42.9925055 78.6516854,42.4719101 L78.6516854,53.6332748 Z M97.7996973,59.9124054 L97.7996973,51.0180313 L97.7996973,48.4195935 L97.7996973,47.9859898 C97.7996973,47.9859898 95.4660399,44.8442449 89.9608481,42.0151115 L89.9608481,33.5442101 C89.9608481,33.5442101 85.4415116,25.1685393 70.1606122,25.1685393 C54.8797127,25.1685393 49.0542822,33.5442101 49.0542822,33.5442101 L49.0542822,34.123699 L49.0542822,41.963299 C43.6522182,44.6948861 41.3591262,47.6956664 41.3591262,47.6956664 L41.3591262,48.4195935 L41.3591262,51.0180313 L41.3591262,60.3326941 C36.8689283,65.8062887 41.2165757,72.3595506 41.2165757,72.3595506 C41.2165757,72.3595506 39.4794022,58.0943384 69.6375461,58.0943384 C99.7936903,58.0943384 99.2252023,72.3595506 99.2252023,72.3595506 C99.2252023,72.3595506 103.291748,65.4638634 97.7996973,59.9124054 Z M47.6238215,33.0337079 C47.6238215,33.0337079 50.89803,23.2500434 70.4083083,23.2500434 C89.9225565,23.2500434 92.15385,33.0337079 92.15385,33.0337079 C92.15385,33.0337079 95.5596279,26.0351869 86.8405983,22.1333077 C85.6712179,19.8145382 80.3429378,10.0864776 72.5888455,8.37643967 C72.5984864,7.09987917 72.3543456,4.71910112 70.3918622,4.71910112 C68.4268267,4.71910112 68.0219103,7.10162589 67.945634,8.37789527 C59.9289699,10.1499417 53.8160934,20.5079856 52.6092838,22.6884732 C45.0145494,26.6622591 47.6238215,33.0337079 47.6238215,33.0337079 Z M101.507896,132.134831 L95.360753,85.3961569 C95.4099164,85.423517 95.4439306,85.443182 95.4439306,85.443182 L95.3381721,85.2245865 L94.24057,76.8811938 C94.24057,76.8811938 103.746547,63.0250342 70.8522137,63.0250342 C37.960167,63.0250342 45.7551425,76.6896734 45.7551425,76.6896734 L38.4886738,132.132551 C15.6574077,120.636197 0,97.0407117 0,69.7957937 C0,31.2486066 31.3399688,0 69.9998571,0 C108.659745,0 140,31.2486066 140,69.7957937 C140,97.0421367 124.340306,120.638192 101.507896,132.134831 Z M78.6516854,31.4606742 L78.6516854,40.0273663 C82.3297188,40.6392121 85.4580211,41.5080046 88.0898876,42.4719101 L88.0898876,36.5680955 C88.0898876,36.5680955 86.1768497,33.2561788 78.6516854,31.4606742 Z M61.3483146,42.9694576 L61.3483146,53.4831461 C63.8857177,53.2750523 66.55271,53.1634432 69.3050345,53.1634432 C71.991118,53.1634432 74.5959191,53.2695762 77.0786517,53.4680215 L77.0786517,42.9459883 C74.5959191,42.636977 71.991118,42.4719101 69.3050345,42.4719101 C66.55271,42.4719101 63.8857177,42.6455823 61.3483146,42.9694576 Z M91.2359551,56.646305 C93.0735349,57.3736668 94.6673494,58.834838 95.9550562,59.7752809 L95.9550562,49.7890243 C94.9276926,48.567339 93.3929516,47.0456822 91.2359551,45.6179775 L91.2359551,56.646305 Z M87.6582483,130.737355 C91.3387636,130.979165 94.0254601,131.472596 95.9550562,132.000364 L94.7356152,121.852719 C92.7314756,121.150085 90.340108,120.465053 87.6753193,120.011732 C79.9196632,118.6913 73.3211389,118.843658 73.3211389,118.843658 C73.3211389,118.843658 78.6820132,116.412863 87.5919558,117.000362 C90.4658646,117.189944 92.6355933,117.555544 94.2681533,117.959811 L93.0282271,107.638743 C91.2172747,107.014596 89.0791275,106.412957 86.7073916,106.011865 C79.5330043,104.792139 73.4275483,104.930646 73.4275483,104.930646 C73.4275483,104.930646 78.3883913,102.678755 86.632279,103.222972 C89.1639136,103.390046 91.1131414,103.704572 92.5977525,104.057187 L91.5902769,95.6677122 C90.2009791,95.2230475 88.6241844,94.8069499 86.9017169,94.5137771 C80.7342362,93.4677619 75.4854617,93.5837614 75.4854617,93.5837614 C75.4854617,93.5837614 79.7509445,91.6510139 86.8362779,92.1196287 C88.6204857,92.2362053 90.0632727,92.4390601 91.2303625,92.6748103 L90.0368126,82.7386759 C89.1087173,82.4755129 88.1029488,82.2371658 87.0300342,82.0553755 C81.7676029,81.1646034 77.2887321,81.2624239 77.2887321,81.2624239 C77.2887321,81.2624239 80.9305531,79.6107298 86.9754068,80.0135539 C88.0338111,80.0839615 88.9491031,80.189573 89.7457514,80.3153834 L89.1730182,75.547574 C89.1730182,75.547574 86.7127974,69.2134831 70.9661895,69.2134831 C55.2212887,69.2134831 52.2631627,75.3559729 52.2631627,75.3559729 L45.6179775,135.270857 C53.4066376,138.323202 61.86875,140 70.718944,140 C79.0302623,140 87.0001599,138.521728 94.3913493,135.813919 C92.4199292,135.18833 90.1850461,134.607179 87.7546996,134.194544 C78.8586984,132.679914 71.287694,132.85045 71.287694,132.85045 C71.287694,132.85045 77.4383882,130.065597 87.6582483,130.737355 Z M51.9101124,55.0561798 C54.2955826,54.4839501 56.9402491,54.0234093 59.7752809,53.697064 L59.7752809,42.4719101 C56.9402491,42.9794334 54.2955826,43.6959864 51.9101124,44.5864028 L51.9101124,55.0561798 Z M44.0449438,59.7752809 C45.3059425,58.7927232 46.90046,57.2883447 48.7640449,56.5197334 L48.7640449,45.6179775 C46.90046,46.8135609 45.3059425,48.1988415 44.0449438,49.7271623 L44.0449438,59.7752809 Z M59.7752809,29.8876404 L59.7752809,38.6614205 C56.7516117,39.2197384 54.1406407,40.0078991 51.9101124,40.8988764 L51.9101124,34.8261234 C51.9101124,34.8261234 53.6418318,31.7251877 59.7752809,29.8876404 Z" id="Fill-1"></path>
                </g>
            </g>
        </g>
    </g>
</svg>