<?xml version="1.0" encoding="utf-8"?>
<!-- Generator: Adobe Illustrator 21.0.2, SVG Export Plug-In . SVG Version: 6.00 Build 0)  -->
<svg version="1.1" id="Ebene_1" xmlns="http://www.w3.org/2000/svg" xmlns:xlink="http://www.w3.org/1999/xlink" x="0px" y="0px"
	 viewBox="0 0 140 140" style="enable-background:new 0 0 140 140;" xml:space="preserve">
<style type="text/css">
	.st0{fill:#FF6663;}
</style>
<title>logo copy</title>
<desc>Created with Sketch.</desc>
<g id="test">
	<g id="scroll-body" transform="translate(-250.000000, -687.000000)">
		<g id="intro" transform="translate(250.000000, 0.000000)">
			<g id="logo-copy" transform="translate(0.000000, 687.000000)">
				<path id="Fill-1" class="st0" d="M61.3,29.6l0,8.9c2.3-0.3,4.9-0.5,7.6-0.5c3.3,0,5.3,0.2,8.1,0.6l0-9.1
					c-2.1-0.4-4.6-0.7-7.5-0.7C66,28.9,64,29.1,61.3,29.6z M78.7,53.6c3.4,0.3,6.6,0.8,9.4,1.4V44.7c-2.8-0.9-6-1.7-9.4-2.2V53.6z
					 M97.8,59.9V51v-2.6V48c0,0-2.3-3.1-7.8-6v-8.5c0,0-4.5-8.4-19.8-8.4s-21.1,8.4-21.1,8.4v0.6V42c-5.4,2.7-7.7,5.7-7.7,5.7v0.7
					V51v9.3c-4.5,5.5-0.1,12-0.1,12s-1.7-14.3,28.4-14.3c30.2,0,29.6,14.3,29.6,14.3S103.3,65.5,97.8,59.9z M47.6,33
					c0,0,3.3-9.8,22.8-9.8c19.5,0,21.7,9.8,21.7,9.8s3.4-7-5.3-10.9c-1.2-2.3-6.5-12-14.3-13.8c0-1.3-0.2-3.7-2.2-3.7
					c-2,0-2.4,2.4-2.4,3.7c-8,1.8-14.1,12.1-15.3,14.3C45,26.7,47.6,33,47.6,33z M101.5,132.1l-6.1-46.7c0,0,0.1,0,0.1,0l-0.1-0.2
					l-1.1-8.3c0,0,9.5-13.9-23.4-13.9C38,63,45.8,76.7,45.8,76.7l-7.3,55.4C15.7,120.6,0,97,0,69.8C0,31.2,31.3,0,70,0
					s70,31.2,70,69.8C140,97,124.3,120.6,101.5,132.1z M78.7,30.2V39c3.7,0.6,6.8,1.5,9.4,2.4v-5.9C88.1,35.6,86.2,32,78.7,30.2z
					 M61.3,42.3l0.1,11.2c2.5-0.2,5.2-0.3,8-0.3c2.7,0,5.3,0.1,7.8,0.3L77,42.3c-2.5-0.3-5.1-0.5-7.8-0.5
					C66.5,41.8,63.8,42,61.3,42.3z M91.2,56.6c1.8,0.7,3.4,2.2,4.7,3.1v-10c-1-1.2-2.6-2.7-4.7-4.2V56.6z M87.7,130.7
					c3.7,0.2,6.4,0.7,8.3,1.3l-1.2-10.1c-2-0.7-4.4-1.4-7.1-1.8c-7.8-1.3-14.4-1.2-14.4-1.2s5.4-2.4,14.3-1.8c2.9,0.2,5,0.6,6.7,1
					L93,107.6c-1.8-0.6-3.9-1.2-6.3-1.6c-7.2-1.2-13.3-1.1-13.3-1.1s5-2.3,13.2-1.7c2.5,0.2,4.5,0.5,6,0.8l-1-8.4
					c-1.4-0.4-3-0.9-4.7-1.2c-6.2-1-11.4-0.9-11.4-0.9s4.3-1.9,11.4-1.5c1.8,0.1,3.2,0.3,4.4,0.6L90,82.7c-0.9-0.3-1.9-0.5-3-0.7
					c-5.3-0.9-9.7-0.8-9.7-0.8s3.6-1.7,9.7-1.2c1.1,0.1,2,0.2,2.8,0.3l-0.6-4.8c0,0-2.5-6.3-18.2-6.3c-15.7,0-18.7,6.1-18.7,6.1
					l-6.6,59.9c7.8,3.1,16.3,4.7,25.1,4.7c8.3,0,16.3-1.5,23.7-4.2c-2-0.6-4.2-1.2-6.6-1.6c-8.9-1.5-16.5-1.3-16.5-1.3
					S77.4,130.1,87.7,130.7z M51.9,55.1c2.4-0.6,5-1,7.9-1.4V42.5c-2.8,0.5-5.5,1.2-7.9,2.1V55.1z M44,59.8c1.3-1,2.9-2.5,4.7-3.3
					V45.6c-1.9,1.2-3.5,2.6-4.7,4.1V59.8z M59.8,29.9v8.8c-3,0.6-5.6,1.3-7.9,2.2v-6.1C51.9,34.8,53.6,31.7,59.8,29.9z"/>
			</g>
		</g>
	</g>
</g>
</svg>
