<?xml version="1.0" encoding="utf-8"?>
<!-- Generator: Adobe Illustrator 19.2.1, SVG Export Plug-In . SVG Version: 6.00 Build 0)  -->
<svg version="1.1" id="tom-tailor" xmlns="http://www.w3.org/2000/svg" xmlns:xlink="http://www.w3.org/1999/xlink" x="0px" y="0px" viewBox="0 0 165 58.6" style="enable-background:new 0 0 165 58.6;" xml:space="preserve">
    <style type="text/css">
    .tom-tailor0 {
        fill: #A8A8A7;
    }
    
    .tom-tailor1 {
        fill: #004380;
    }
    </style>
    <path class="tom-tailor0" d="M100.4,53.9c0-1-0.8-1.4-1.6-1.4c-0.5,0-1.1,0.2-1.4,0.5l0.3,0.5c0.3-0.2,0.7-0.4,1.2-0.4
	c0.5,0,0.8,0.3,0.8,0.8c0,0.5-1,1.3-1.5,1.6l-0.9,0.7v0.3h3v-0.5h-2l0.7-0.5C99.5,55.2,100.4,54.6,100.4,53.9 M94.7,52.8
	c1,0,1.7,0.6,1.7,1.9c0,1.1-0.7,1.9-1.8,1.9c-1.2,0-1.8-1-1.9-2.2c0-1.7,1.1-3.4,3-3.9l0.2,0.4c-1.1,0.4-1.9,1.2-2.2,2.2
	C93.9,53,94.3,52.8,94.7,52.8 M94.7,56.2c0.7,0,1-0.6,1-1.4c0-0.8-0.4-1.5-1-1.5c-0.4,0-0.8,0.2-1,0.2c0,0.2-0.1,0.6-0.1,1.1
	C93.5,55.4,94,56.2,94.7,56.2 M89.8,52.5c1.2,0,1.8,1,1.9,2.2c0.1,1.7-1.1,3.3-3,3.9l-0.2-0.4c1.1-0.4,1.9-1.2,2.2-2.2
	c-0.2,0.1-0.6,0.3-1,0.3c-1,0-1.7-0.6-1.7-1.9C88,53.4,88.7,52.5,89.8,52.5 M90.8,55.7c0-0.2,0.1-0.6,0.1-1.1c0-0.8-0.5-1.6-1.2-1.6
	c-0.7,0-1,0.6-1,1.4c0,0.8,0.4,1.5,1,1.5C90.1,55.9,90.6,55.7,90.8,55.7 M86.7,56.6v-0.3l-0.8-0.2v-2.9l0.8-0.2v-0.3h-2.3V53
	l0.8,0.2v2.9l-0.8,0.2v0.3H86.7z M82.2,56.2c0-0.3-0.3-0.6-0.6-0.6c-0.3,0-0.6,0.3-0.6,0.6c0,0.3,0.3,0.6,0.6,0.6
	C81.9,56.7,82.2,56.5,82.2,56.2 M80.4,54.1v-1.4h-4.3v1.4h0.4l0.2-0.9h1.2v2.9l-0.8,0.2v0.3h2.3v-0.3l-0.8-0.2v-2.9h1.2l0.2,0.9
	H80.4z M74.4,55.6c0-1.4-2.4-1.2-2.4-2c0-0.4,0.4-0.5,0.8-0.5c0.3,0,0.7,0.1,0.8,0.3l0.1,0.8h0.5v-1.3c-0.4-0.1-0.9-0.3-1.4-0.3
	c-0.9,0-1.5,0.5-1.5,1.2c0,1.3,2.3,1,2.3,2c0,0.4-0.5,0.6-0.9,0.6c-0.3,0-0.7-0.2-0.9-0.3l-0.1-0.8h-0.4v1.4
	c0.4,0.1,0.9,0.3,1.4,0.3C73.6,56.8,74.4,56.4,74.4,55.6 M69.1,56.6h-3.5v-0.3l0.8-0.2v-2.9l-0.8-0.2v-0.3h3.5v1.2h-0.3l-0.2-0.7
	h-1.5v1.1h1.3v0.5h-1.3v1.3h1.5l0.4-0.8l0.3,0.1L69.1,56.6z" />
    <path class="tom-tailor1" d="M161.6,37.8l0.2-0.1c1.7-0.6,2.7-2.1,2.7-4.1c0-2.6-2.1-4.5-4.9-4.5H149v13.2h3.3v-4.2h5.8l3.3,4.2h3.7
	L161.6,37.8z M159.2,35.5h-7v-3.8h7c1.3,0,2.1,1,2.1,1.8C161.3,34.7,160.4,35.5,159.2,35.5" />
    <polygon class="tom-tailor1" points="115.9,39.6 115.9,29.1 112.8,29.1 112.8,42.3 126,42.3 126,39.6 " />
    <polygon class="tom-tailor1" points="65.5,32 72.6,32 72.6,42.3 75.7,42.3 75.7,32 82.8,32 82.8,29.1 65.5,29.1 " />
    <polygon class="tom-tailor1" points="0,32 7.1,32 7.1,42.3 10.2,42.3 10.2,32 17.4,32 17.4,29.1 0,29.1 " />
    <path class="tom-tailor1" d="M28.4,28.8c-4.1,0-8.8,1.8-8.8,7c0,2.7,1.6,4.4,2.9,5.3c1.6,1.1,3.8,1.7,5.9,1.7c2.3,0,4.5-0.6,6.1-1.8
	c1.8-1.3,2.7-3.1,2.7-5.2C37.2,31.5,33.7,28.8,28.4,28.8 M28.4,40C26,40,23,38.9,23,35.7c0-3,2.7-4.3,5.4-4.3c3.4,0,5.4,1.6,5.4,4.3
	C33.7,38.4,31.8,40,28.4,40" />
    <path class="tom-tailor1" d="M136.6,28.8c-4.1,0-8.8,1.8-8.8,7c0,2.7,1.6,4.4,2.9,5.3c1.6,1.1,3.8,1.7,5.9,1.7c2.3,0,4.5-0.6,6.1-1.8
	c1.8-1.3,2.7-3.1,2.7-5.2C145.4,31.5,141.9,28.8,136.6,28.8 M136.6,40c-2.4,0-5.4-1.1-5.4-4.3c0-3,2.7-4.3,5.4-4.3
	c3.4,0,5.4,1.6,5.4,4.3C142,38.4,140,40,136.6,40" />
    <path class="tom-tailor1" d="M93.4,29.1h-1.9h-1.9l-7.3,13.2h3.4l1.7-3.1h8.2l1.7,3.1h3.4L93.4,29.1z M88.8,36.6l2.7-4.9l2.7,4.9L88.8,36.6z
	" />
    <rect x="104.3" y="29.1" class="tom-tailor1" width="3.4" height="13.2" />
    <polygon class="tom-tailor1" points="49.7,35 44.5,29.1 40.7,29.1 40.7,42.3 43.8,42.3 43.8,33.2 43.8,32.9 44,33.1 49.7,39.4 55.3,33.1 
	55.6,32.9 55.6,33.2 55.6,42.3 58.6,42.3 58.6,29.1 54.9,29.1 " />
    <path class="tom-tailor1" d="M100,3.3C95.1,0.9,89,0,83,0c-6,0-12,0.9-16.9,3.3c-0.3,0.2-0.6,0.4-0.6,0.8v6c0,0.4,0.1,0.6,0.5,0.5
	c2.4-0.8,5.6-1.5,7.9-1.8c0.3-0.1,0.6,0.1,0.6,0.5l0,7.9c0,0.3,0.1,0.5,0.3,0.6c1.8,0.5,5.4,1.1,8.3,1.1c2.8,0,6.5-0.6,8.3-1.1
	c0.2-0.1,0.3-0.3,0.3-0.6l0-7.9c0-0.4,0.2-0.5,0.6-0.5c2.3,0.2,5.4,1,7.9,1.8c0.4,0.1,0.5,0,0.5-0.5v-6C100.6,3.7,100.3,3.5,100,3.3
	" />
</svg>
